<?xml version="1.0" standalone="no"?>
<!DOCTYPE svg PUBLIC "-//W3C//DTD SVG 20010904//EN"
 "http://www.w3.org/TR/2001/REC-SVG-20010904/DTD/svg10.dtd">
<svg version="1.0" xmlns="http://www.w3.org/2000/svg"
 width="512.000000pt" height="512.000000pt" viewBox="0 0 512.000000 512.000000"
 preserveAspectRatio="xMidYMid meet">
<metadata>
Created by potrace 1.16, written by Peter Selinger 2001-2019
</metadata>
<g transform="translate(0.000000,512.000000) scale(0.100000,-0.100000)"
fill="#000000" stroke="none">
<path d="M790 5100 c33 -26 95 -25 140 1 19 11 26 17 15 13 -75 -26 -94 -28
-137 -11 l-43 17 25 -20z"/>
<path d="M1071 4966 l-155 -155 -103 96 c-57 53 -105 94 -107 92 -2 -2 43 -46
100 -97 l103 -94 -21 -29 c-20 -27 -21 -30 -4 -47 16 -18 14 -23 -42 -108
-116 -176 -212 -363 -212 -414 0 -11 20 -43 45 -69 52 -56 54 -68 30 -221 -10
-63 -15 -174 -15 -328 l0 -232 64 -93 c85 -123 110 -171 102 -202 -10 -40 -53
-55 -161 -55 l-95 0 0 -97 0 -96 55 -54 c30 -30 55 -48 55 -41 0 8 -22 36 -50
63 l-50 49 0 83 0 83 101 0 101 0 35 35 c27 27 33 39 28 57 -8 24 -82 149
-135 228 l-30 45 0 220 c0 135 6 266 15 340 21 171 22 169 -30 224 -30 32 -45
57 -45 75 0 51 179 368 282 499 29 37 30 38 12 58 -18 19 -15 23 146 179 90
88 157 160 149 160 -8 0 -84 -70 -168 -154z"/>
<path d="M1202 4953 c-171 -172 -236 -255 -342 -439 -28 -48 -50 -97 -49 -108
2 -12 -11 -48 -28 -81 -17 -33 -36 -77 -43 -98 -11 -35 -10 -41 11 -63 22 -24
22 -24 11 -176 -7 -84 -12 -232 -12 -329 0 -152 2 -178 16 -183 9 -3 19 -4 23
-1 5 2 11 120 15 262 3 142 8 285 11 318 2 34 1 47 -3 31 -4 -17 -11 -28 -17
-25 -15 6 -12 88 3 94 6 2 12 14 12 25 0 11 16 59 35 107 40 98 38 93 26 93
-5 0 -13 -10 -16 -22 -13 -44 -67 -183 -74 -191 -4 -4 -15 1 -24 10 -15 17
-14 23 8 77 40 97 217 394 241 403 8 3 24 -3 36 -13 15 -14 22 -16 25 -6 8 20
36 13 71 -19 36 -33 32 -54 -11 -62 -19 -4 -19 -4 4 -6 14 0 38 -14 54 -31 27
-29 28 -30 7 -30 -41 0 -81 -56 -189 -265 l-108 -210 -7 -130 c-4 -71 -10
-192 -14 -268 -5 -96 -11 -140 -20 -148 -17 -14 -19 -131 -4 -160 12 -22 59
-26 78 -7 7 7 12 41 12 81 0 60 -3 73 -26 101 l-27 31 9 125 c4 69 8 166 7
215 -1 63 2 82 8 65 6 -17 7 -7 3 33 -5 57 -5 58 101 265 113 219 148 267 194
260 19 -3 32 3 48 23 l23 27 -81 62 c-45 35 -98 71 -120 82 -21 10 -39 24 -39
31 1 21 140 188 255 305 74 74 105 112 93 112 -10 0 -92 -74 -186 -167z m-302
-1603 c0 -5 -4 -10 -10 -10 -5 0 -10 5 -10 10 0 6 5 10 10 10 6 0 10 -4 10
-10z"/>
<path d="M1556 5104 c-3 -9 -6 -31 -6 -50 0 -28 -4 -34 -21 -34 -26 0 -23 -19
14 -101 l25 -55 -69 -92 c-39 -51 -85 -102 -105 -115 -21 -13 -45 -42 -60 -73
-14 -29 -36 -67 -50 -85 -23 -31 -23 -35 -8 -46 9 -7 14 -19 11 -27 -5 -13
-11 -14 -32 -4 -43 19 -59 -7 -62 -102 -1 -44 -11 -117 -22 -163 -11 -45 -23
-113 -27 -152 -4 -44 -14 -79 -25 -94 -11 -14 -19 -40 -19 -62 0 -22 -6 -41
-14 -46 -11 -6 -15 -43 -18 -173 -2 -91 1 -171 5 -177 5 -7 23 -13 42 -13 18
0 35 6 38 13 2 6 4 0 4 -14 0 -14 8 -42 18 -62 22 -47 17 -80 -15 -87 -23 -5
-26 -12 -31 -75 -4 -39 -7 -212 -8 -385 -1 -249 -4 -311 -14 -295 -13 23 -17
600 -4 673 6 34 4 42 -8 42 -8 0 -15 -4 -15 -10 0 -5 -13 -10 -29 -10 -23 0
-30 -5 -34 -29 -4 -20 -14 -31 -32 -35 -23 -6 -25 -11 -25 -57 0 -43 3 -50 18
-47 12 2 19 16 23 48 3 25 7 -59 7 -187 2 -229 2 -231 -19 -226 -18 5 -20 2
-17 -38 3 -38 6 -44 26 -43 16 0 22 -5 22 -22 0 -33 21 -74 37 -74 7 0 16 -7
19 -15 4 -8 12 -15 19 -15 8 0 21 -7 30 -16 13 -13 18 -14 31 -3 21 17 116 12
127 -7 10 -17 33 -18 43 -3 4 6 12 32 19 58 l12 46 7 -75 c5 -46 15 -84 26
-100 l18 -26 -40 -39 -40 -40 6 -92 c4 -51 11 -103 16 -115 7 -16 8 -4 4 42
-4 47 -3 61 5 50 6 -8 11 -47 11 -86 0 -39 6 -89 13 -110 8 -22 17 -51 21 -66
6 -27 6 -27 -26 -16 -18 6 -44 19 -57 30 -32 24 -52 23 -111 -7 -72 -37 -90
-33 -167 33 -88 74 -237 196 -443 361 -92 74 -165 139 -165 148 0 9 -24 36
-53 60 l-53 43 -26 -30 c-14 -17 -23 -34 -19 -37 3 -4 6 -4 6 -1 0 3 18 -12
40 -34 24 -24 46 -38 55 -35 8 4 17 2 20 -4 4 -5 97 -83 208 -173 111 -90 265
-215 342 -280 89 -74 148 -116 162 -116 13 0 55 16 94 35 l70 36 43 -26 c23
-14 54 -25 67 -25 22 0 28 -10 56 -83 17 -45 45 -131 63 -191 26 -92 30 -119
25 -168 l-7 -58 -29 21 c-54 38 -199 181 -193 190 3 5 -22 37 -55 71 -34 34
-61 65 -61 70 0 14 -13 9 -37 -14 l-23 -21 53 -56 c33 -35 59 -54 70 -52 12 1
46 -24 95 -71 43 -41 98 -92 124 -113 l47 -40 -10 -45 c-6 -25 -17 -87 -24
-137 -14 -101 -13 -100 -159 -258 -25 -27 -49 -59 -52 -70 -4 -11 -44 -58 -89
-105 -127 -131 -155 -166 -155 -191 0 -16 -27 -51 -87 -111 -72 -73 -84 -89
-74 -102 10 -12 9 -19 -3 -38 -22 -33 -192 -188 -207 -188 -7 0 -10 -2 -7 -5
7 -8 148 27 143 35 -3 4 64 81 149 172 101 110 162 184 179 221 20 41 49 74
110 126 97 83 113 104 92 121 -21 18 -18 33 5 27 26 -7 168 132 258 251 l62
83 -5 -43 c-2 -24 -7 -80 -10 -125 -7 -101 -48 -268 -87 -350 -30 -64 -192
-293 -231 -327 -18 -16 -18 -18 -4 -13 10 4 20 7 22 7 6 0 163 215 194 266 71
116 118 292 128 479 5 104 9 125 30 157 14 20 35 75 48 123 14 48 26 90 29 92
6 6 16 -138 19 -289 2 -70 0 -125 -5 -122 -5 3 -16 -12 -24 -33 -9 -21 -31
-63 -49 -93 -18 -30 -50 -95 -70 -145 -64 -155 -122 -257 -187 -329 -34 -38
-53 -64 -43 -58 33 19 59 44 98 96 40 53 45 53 23 1 -11 -25 -11 -33 -2 -29 7
3 23 37 35 77 13 40 29 83 36 96 11 22 13 19 19 -42 7 -64 9 -66 28 -56 42 23
-21 -50 -116 -132 -111 -97 -161 -123 -313 -160 -139 -34 -222 -73 -295 -140
l-53 -48 64 -1 c62 0 65 1 113 46 27 25 68 54 92 65 46 20 232 53 263 47 10
-2 -31 -12 -92 -21 -125 -20 -208 -53 -256 -103 l-33 -34 125 0 125 0 39 41
c44 45 193 159 283 216 146 92 166 137 197 448 13 129 15 230 11 520 -5 340 3
422 19 201 6 -79 14 -119 54 -256 4 -14 4 -41 -1 -60 -4 -20 1 -195 13 -410
21 -380 20 -500 -5 -632 -12 -62 -11 -68 4 -68 9 0 22 12 29 26 21 46 41 162
41 235 0 39 4 69 10 69 6 0 11 10 11 23 1 12 5 -30 10 -93 5 -80 15 -138 32
-185 23 -69 24 -70 62 -73 l38 -3 -5 58 c-3 32 -18 91 -32 132 -20 56 -30 116
-41 240 -19 211 -23 231 -40 231 -14 0 -18 18 -30 144 -4 45 -2 63 10 76 14
16 14 31 -2 169 -15 132 -15 154 -3 161 20 13 24 6 45 -85 9 -44 23 -91 30
-105 7 -14 29 -86 49 -160 48 -181 104 -367 121 -400 23 -44 43 -139 55 -260
7 -66 20 -133 30 -157 18 -40 21 -43 59 -43 l41 0 0 45 c0 43 -4 51 -45 80
-18 13 -18 14 -2 15 10 0 29 -11 42 -25 19 -18 25 -35 25 -70 0 -39 3 -45 20
-45 11 0 23 8 26 18 3 9 10 25 15 34 15 30 11 195 -6 228 -16 30 -59 57 -126
79 -54 17 -70 41 -85 128 -9 58 -27 104 -66 180 -52 101 -53 102 -36 130 25
43 42 39 67 -15 14 -30 47 -70 87 -106 35 -32 89 -95 119 -141 72 -109 103
-135 161 -135 60 0 109 45 164 153 24 45 64 105 90 133 27 28 58 74 71 103 21
51 23 52 54 47 41 -8 49 2 68 88 15 64 30 96 42 85 10 -11 -28 -190 -40 -185
-7 2 -11 -8 -11 -28 -1 -17 -11 -67 -23 -111 -12 -44 -26 -114 -32 -155 -17
-128 -25 -137 -161 -191 -29 -11 -65 -32 -80 -47 -27 -25 -28 -30 -28 -121 0
-107 8 -171 21 -171 5 0 9 60 9 134 l0 134 30 25 c32 27 82 43 101 31 21 -13
2 -121 -31 -179 -17 -29 -33 -73 -36 -99 l-7 -46 47 0 c41 0 48 3 66 33 l20
32 -6 -34 c-6 -26 -4 -33 7 -29 10 3 16 33 21 109 10 142 27 268 40 293 24 47
62 89 93 102 l32 13 12 113 c21 198 22 246 3 133 -14 -82 -20 -100 -36 -103
-31 -6 -33 14 -14 120 19 108 36 140 61 119 13 -10 16 21 22 226 l7 238 61 63
c34 34 66 62 71 62 5 0 6 -74 2 -188 -5 -148 -3 -210 9 -297 20 -133 25 -217
28 -440 3 -162 19 -281 37 -270 9 6 22 -23 15 -35 -6 -10 22 -33 44 -37 21 -3
61 31 61 52 0 8 -16 25 -35 37 -31 20 -35 28 -35 67 l0 43 47 -52 c26 -29 72
-71 102 -93 31 -22 113 -94 182 -159 l126 -118 148 0 c145 0 148 0 131 19 -29
32 -135 73 -253 97 -70 14 -131 33 -158 48 -119 70 -221 232 -261 414 -9 41
-16 145 -19 267 -2 135 -1 175 4 125 11 -101 58 -362 78 -430 23 -82 61 -162
73 -155 5 3 7 0 4 -9 -7 -19 54 -86 114 -125 68 -43 166 -77 247 -86 156 -16
492 -98 569 -139 42 -22 61 -26 130 -25 l81 1 -95 31 c-52 17 -97 33 -99 34
-3 2 22 30 54 63 33 33 56 60 51 60 -5 0 -34 -27 -65 -61 -42 -44 -61 -58 -74
-53 -14 5 -3 21 62 90 44 46 117 130 163 186 46 56 110 131 142 165 33 35 70
80 82 101 29 46 31 29 4 -34 -17 -39 -41 -77 -102 -159 -4 -5 -46 -55 -93
-109 -47 -54 -85 -103 -85 -107 0 -5 23 -9 51 -9 48 0 54 3 111 58 33 31 67
70 75 86 14 27 13 30 -12 56 l-27 28 25 34 c37 48 90 166 83 183 -5 14 24 76
76 162 11 18 18 42 16 54 -2 15 -28 -25 -83 -131 -53 -101 -99 -174 -135 -215
-30 -34 -101 -115 -157 -181 -56 -65 -129 -146 -162 -179 l-61 -59 -95 23
c-52 14 -101 32 -109 40 -11 12 12 8 86 -17 l101 -33 30 28 c16 15 95 105 175
198 79 94 166 191 192 217 56 55 90 141 90 226 0 45 4 59 25 78 22 20 25 32
25 87 0 46 4 68 16 78 43 36 44 46 44 514 0 295 3 444 10 440 6 -4 10 32 10
99 l0 106 -30 0 c-26 0 -30 -4 -30 -28 0 -21 7 -31 28 -39 l27 -11 -26 -1
c-23 -1 -27 -6 -31 -34 -2 -22 2 -39 14 -52 17 -17 18 -51 18 -458 0 -384 -2
-443 -16 -473 -9 -19 -19 -36 -23 -38 -3 -2 -5 43 -3 100 l3 104 -30 0 -31 0
0 -121 0 -120 -32 -40 c-39 -49 -44 -105 -13 -139 26 -29 25 -90 -4 -167 -15
-42 -50 -92 -122 -178 -233 -279 -302 -355 -320 -355 -11 0 -59 13 -108 29
-81 26 -98 36 -188 113 -153 133 -207 198 -281 343 l-30 58 152 151 c290 289
449 520 544 794 l37 107 3 355 3 355 55 57 c30 31 54 63 54 71 0 8 -12 18 -27
22 -29 7 -43 21 -43 43 0 9 9 7 29 -7 16 -12 32 -21 35 -21 3 0 6 90 6 200 0
138 -3 200 -11 200 -6 0 -24 -9 -40 -21 l-29 -20 0 -197 0 -196 -32 -33 c-30
-31 -31 -35 -20 -66 15 -41 16 -599 2 -700 -26 -180 -136 -405 -308 -631 -42
-56 -152 -177 -244 -270 -165 -167 -168 -169 -188 -151 -16 14 -20 31 -20 80
0 35 -11 106 -25 159 -42 161 -55 260 -55 415 0 194 14 304 56 434 19 59 34
122 32 140 -2 33 9 54 74 144 21 29 38 60 38 69 0 10 23 61 50 115 39 75 50
108 50 143 0 32 5 48 15 52 9 4 15 19 15 35 0 19 5 29 15 29 8 0 23 9 32 20
10 11 24 20 33 20 13 0 13 1 0 10 -13 9 -12 12 4 25 18 13 18 26 13 217 -6
194 0 269 18 225 4 -10 6 -120 3 -243 -5 -233 1 -265 30 -168 10 31 16 92 16
167 l1 117 104 0 c57 0 102 2 100 4 -3 3 -55 6 -116 7 -62 1 -111 4 -111 8 1
3 -1 34 -5 68 -7 57 -10 62 -34 65 -21 2 -29 10 -35 36 -6 20 -21 40 -43 55
-19 12 -35 30 -35 39 0 35 -11 48 -36 42 -19 -5 -32 2 -63 33 -33 34 -39 48
-45 99 -3 32 -2 73 3 89 l9 30 1 -31 c2 -54 13 -94 27 -94 7 0 22 12 33 28 12
15 25 32 31 39 6 7 10 77 10 166 0 125 -3 157 -15 167 -17 14 -20 60 -4 60 6
0 28 -18 50 -40 l39 -39 0 -178 c0 -148 -3 -183 -16 -201 -24 -34 -7 -40 24
-9 26 27 27 30 27 152 0 69 3 125 8 125 4 0 7 7 7 15 0 8 7 15 16 15 10 0 14
-6 10 -15 -4 -10 1 -15 14 -15 16 0 20 7 20 35 0 29 -5 37 -25 45 -24 9 -25
12 -25 109 0 86 -2 99 -18 103 -13 4 -23 26 -36 84 -35 149 -74 245 -119 292
-24 24 -50 42 -63 42 -17 0 -25 9 -33 33 -7 19 -20 43 -30 53 -17 19 -41 58
-41 67 0 3 9 7 21 10 14 4 23 -1 29 -16 11 -27 120 -152 120 -137 0 6 -18 30
-40 54 -22 24 -55 76 -74 117 -18 41 -67 118 -107 172 -41 53 -86 115 -101
137 -15 21 -37 45 -50 53 -31 20 -72 32 -64 19 3 -5 -1 -15 -8 -21 -11 -9 -16
-9 -21 0 -4 6 -1 15 6 20 11 7 10 9 -3 9 -20 0 -24 -30 -8 -46 6 -6 7 -20 3
-32 -8 -21 -10 -20 -68 23 -33 25 -69 44 -80 43 -11 -1 -81 28 -155 64 -74 36
-157 73 -185 82 -192 61 -538 82 -763 46 -146 -24 -375 -110 -475 -179 -25
-17 -52 -31 -60 -31 -8 0 -26 -11 -41 -25 -15 -14 -35 -25 -45 -25 -27 0 -95
-49 -172 -125 -38 -38 -69 -64 -69 -58 0 15 115 176 152 213 32 31 238 171
325 220 24 13 41 26 38 28 -6 6 -120 -63 -235 -142 -57 -40 -97 -61 -101 -55
-3 6 -10 9 -15 7 -17 -6 -44 95 -39 145 6 48 2 60 -9 31z m1249 -64 c151 -18
160 -24 98 -64 -36 -23 -42 -23 -128 -14 -89 10 -411 4 -451 -8 -16 -4 -31 3
-55 24 l-33 29 35 11 c88 30 368 41 534 22z m-601 -69 c104 -96 94 -93 242
-81 92 7 170 7 272 -1 l142 -11 38 31 c21 16 57 50 80 75 45 49 63 54 119 34
23 -8 35 -20 39 -38 16 -75 35 -96 137 -154 l48 -28 34 37 c28 28 38 34 52 26
50 -26 76 -96 118 -323 26 -139 27 -148 11 -173 -9 -14 -23 -25 -31 -25 -8 0
-15 -6 -15 -14 0 -7 -7 -19 -15 -26 -8 -7 -15 -28 -15 -47 0 -26 -12 -50 -53
-101 -29 -37 -63 -82 -75 -99 -16 -22 -37 -36 -65 -44 -23 -6 -54 -16 -69 -21
l-28 -10 2 -112 2 -111 5 109 6 109 65 18 c40 11 70 25 78 38 12 17 17 18 33
8 17 -10 23 -8 39 13 l20 25 0 -105 0 -105 86 -84 c81 -78 87 -87 89 -127 1
-29 12 -60 35 -96 18 -29 38 -71 46 -93 13 -40 13 -40 8 -5 -4 26 4 57 30 119
38 89 44 134 32 239 -6 43 -5 62 3 62 10 0 17 -86 11 -130 -1 -10 2 -12 8 -5
7 6 8 46 2 112 -6 78 -13 111 -30 138 -19 30 -20 38 -9 53 10 12 7 11 -10 -3
l-23 -20 2 20 c1 11 2 27 1 36 -1 19 -60 103 -67 96 -3 -3 8 -24 25 -48 36
-49 39 -72 11 -92 -17 -12 -18 -16 -6 -20 20 -8 30 -66 16 -102 -11 -29 -11
-29 9 -10 21 18 21 18 21 -7 0 -32 -20 -49 -49 -41 -17 4 -21 11 -17 27 4 11
9 42 13 67 5 43 2 51 -36 103 -23 31 -46 56 -51 56 -21 0 -32 -102 -21 -200 7
-64 8 -68 10 -27 0 26 9 62 18 80 l17 32 9 -57 c10 -66 3 -108 -18 -108 -9 0
-12 -6 -9 -15 4 -9 0 -15 -10 -15 -11 0 -16 -9 -16 -27 0 -27 -1 -27 -50 23
-62 64 -70 85 -70 192 0 100 0 101 98 207 90 97 122 150 122 200 0 67 -37 159
-85 213 -26 29 -48 66 -55 92 -7 25 -19 59 -26 75 -11 23 -1 16 42 -30 64 -67
106 -130 154 -225 17 -36 45 -79 61 -96 18 -19 43 -68 65 -129 l35 -99 -22
-30 c-14 -18 -22 -42 -21 -59 2 -16 -7 -54 -18 -85 -16 -41 -17 -52 -6 -43 10
8 16 9 21 1 11 -18 24 -188 25 -316 l0 -121 -40 -76 -41 -77 0 -379 c0 -423
-1 -435 -68 -576 -32 -68 -40 -97 -50 -194 -28 -268 -63 -401 -134 -510 -49
-76 -152 -184 -236 -251 l-44 -34 6 53 c5 44 12 59 41 85 45 39 176 187 176
198 0 4 -43 -38 -95 -94 -52 -56 -103 -106 -113 -111 -9 -6 -1 8 19 29 20 22
42 49 48 61 12 23 15 96 5 106 -11 11 -93 -52 -122 -96 -16 -23 -50 -77 -76
-120 -91 -155 -171 -242 -199 -218 -16 13 -27 5 -27 -21 0 -12 7 -18 22 -18
15 0 55 34 123 104 91 95 104 105 140 108 l40 3 -1 -40 c-2 -35 -8 -45 -55
-85 -29 -25 -100 -87 -157 -139 -62 -55 -128 -104 -161 -120 -54 -25 -63 -26
-226 -26 -165 0 -172 1 -230 28 -47 22 -90 57 -192 159 -86 86 -140 132 -155
133 -31 2 -57 48 -42 72 15 25 60 28 93 6 16 -10 62 -56 103 -103 41 -47 87
-94 102 -103 33 -22 51 -14 35 15 -9 17 -5 26 31 63 23 23 67 56 98 71 53 27
66 29 167 29 61 0 122 -4 138 -9 37 -11 34 5 -6 25 -38 18 -47 57 -23 94 l16
24 -163 3 -162 3 3 -33 c3 -19 12 -37 24 -43 26 -14 68 -3 69 19 0 9 3 12 5 5
9 -21 -8 -39 -96 -105 -47 -35 -96 -80 -109 -101 l-25 -37 -39 37 c-21 21 -85
104 -142 184 -83 117 -121 161 -191 220 -49 41 -96 88 -106 105 -10 17 -29 82
-43 145 -29 132 -41 151 -157 270 -72 74 -88 97 -115 165 -51 129 -57 180 -46
381 6 98 8 270 4 383 l-6 205 -35 60 -34 60 -6 195 -5 195 -5 -175 c-5 -172
-12 -217 -31 -189 -10 16 -2 281 12 402 7 65 6 84 -7 109 -8 16 -13 32 -11 34
3 3 1 23 -4 45 -20 86 72 338 166 454 61 76 134 153 159 167 19 10 19 10 0
-14 -10 -14 -51 -63 -91 -108 -94 -109 -124 -166 -130 -244 -5 -59 -4 -65 26
-98 l31 -36 -30 -66 c-34 -74 -36 -94 -15 -122 19 -25 19 -60 0 -67 -8 -4 -23
5 -35 21 -16 20 -18 21 -10 5 5 -12 14 -25 20 -28 5 -3 6 -15 1 -28 -5 -12
-11 -68 -15 -123 -7 -96 -6 -103 13 -116 13 -9 24 -33 30 -64 6 -27 24 -84 41
-127 23 -55 30 -86 25 -105 -10 -41 7 -18 59 81 25 49 46 98 46 108 0 11 10
39 22 62 21 41 22 41 29 17 7 -24 7 -23 8 7 1 20 13 46 36 73 l35 42 0 106 c0
94 2 104 14 86 13 -16 18 -17 35 -6 27 16 47 15 75 -4 13 -8 53 -23 88 -32
l63 -17 6 -80 5 -80 2 81 c2 92 11 82 -101 118 -55 17 -76 32 -136 99 -35 38
-46 58 -53 100 -5 34 -4 61 3 79 24 59 -20 107 -54 58 -14 -20 -14 -20 -35 0
-20 19 -20 22 -7 67 7 27 16 75 20 108 17 153 44 264 74 299 9 10 30 27 46 39
l30 21 -24 -27 c-20 -22 -22 -29 -12 -41 25 -30 50 -28 121 10 48 25 76 47 87
68 8 16 22 36 29 44 8 7 14 24 14 37 0 17 8 26 31 34 18 6 33 11 35 11 1 0 -4
-14 -13 -31 -8 -17 -21 -72 -27 -122 -7 -51 -16 -98 -20 -105 -6 -10 1 -9 23
3 17 9 36 13 41 10 18 -11 11 -81 -9 -99 -19 -17 -19 -19 8 -64 15 -26 47 -84
71 -130 41 -80 98 -142 129 -142 8 0 -3 13 -25 30 -55 40 -74 86 -114 275 -26
122 -50 285 -50 343 0 36 3 42 20 42 11 0 49 -26 84 -59z m-634 -5 c10 -24 24
-47 30 -51 8 -5 6 -13 -6 -26 -17 -19 -19 -18 -46 42 -32 71 -34 79 -13 79 9
0 24 -19 35 -44z m1658 0 c37 -18 78 -43 92 -55 23 -20 -107 44 -155 76 -35
23 -6 14 63 -21z m-1298 -11 c0 -2 -13 -11 -30 -20 -38 -19 -40 -11 -2 9 31
17 32 18 32 11z m1746 -107 c11 -12 28 -35 37 -50 17 -27 17 -28 -5 -29 -20
-1 -19 -2 8 -14 29 -13 83 -70 132 -142 22 -31 22 -32 3 -42 -11 -6 -21 -11
-23 -11 -2 0 -34 43 -73 94 -41 56 -85 103 -106 115 -31 17 -69 71 -69 95 0
12 45 24 60 16 8 -5 24 -19 36 -32z m120 -326 c57 -73 64 -102 25 -102 -15 0
-30 21 -61 83 -23 46 -71 119 -107 163 l-66 79 77 -75 c42 -41 102 -108 132
-148z m-2372 86 c-13 -23 -37 -48 -46 -48 -13 0 -9 22 9 42 18 20 48 25 37 6z
m2166 -81 c31 -62 29 -84 -8 -73 -13 5 -18 13 -15 29 2 12 -7 44 -21 70 -14
26 -26 53 -26 59 0 23 41 -27 70 -85z m-2039 4 c-26 -49 -26 -59 -3 -57 19 1
20 -3 8 -95 -9 -77 -3 -95 69 -178 76 -89 85 -114 85 -243 l0 -113 -43 -53
-42 -52 -8 37 c-4 21 -13 54 -19 74 -7 26 -7 42 1 57 12 23 14 107 2 136 -6
15 -10 11 -27 -25 -25 -56 -24 -131 2 -160 19 -21 19 -21 -16 -17 l-35 3 -5
62 c-4 45 -11 68 -27 85 -30 32 -29 59 4 119 26 48 27 49 47 32 20 -18 20 -17
6 2 -8 11 -25 33 -37 48 -19 23 -23 41 -23 95 0 37 4 93 10 125 9 59 56 175
66 164 3 -3 -4 -23 -15 -46z m-211 -41 c0 -5 -5 -10 -11 -10 -5 0 -7 5 -4 10
3 6 8 10 11 10 2 0 4 -4 4 -10z m2540 -140 c28 -56 24 -74 -5 -20 -13 25 -24
48 -25 53 -1 17 11 4 30 -33z m-2645 -35 c-15 -31 -29 -54 -31 -52 -3 3 7 30
22 61 15 31 29 55 31 52 2 -2 -8 -30 -22 -61z m2345 26 c-5 -11 -15 -23 -21
-27 -6 -3 -3 5 6 20 20 30 30 35 15 7z m427 -43 c66 -69 126 -267 124 -411
l-1 -87 25 6 c24 6 25 4 25 -41 0 -38 -3 -46 -17 -43 -10 2 -21 18 -27 36 -5
17 -15 32 -22 32 -8 0 -14 4 -14 10 0 5 -18 22 -40 36 -38 25 -40 29 -40 78 0
71 -16 159 -45 258 -14 45 -27 91 -30 102 -2 10 -10 25 -16 33 -10 12 -10 16
2 24 24 15 33 11 76 -33z m-461 -35 c-10 -10 -19 5 -10 18 6 11 8 11 12 0 2
-7 1 -15 -2 -18z m-1841 -1 c-3 -3 -11 0 -18 7 -9 10 -8 11 6 5 10 -3 15 -9
12 -12z m2256 -93 c39 -121 49 -212 56 -500 4 -188 3 -258 -5 -263 -9 -5 -12
19 -12 88 0 78 -3 96 -15 96 -12 0 -14 36 -12 248 l2 247 -31 88 c-18 48 -27
86 -21 84 6 -2 24 -41 38 -88z m-60 -96 c10 -59 19 -152 19 -205 0 -71 4 -99
14 -105 14 -9 31 -210 18 -228 -4 -5 -28 -11 -54 -12 l-48 -1 0 81 c0 45 -3
99 -6 119 -6 34 -4 39 25 55 29 17 31 21 31 81 0 58 -12 201 -25 297 -12 83 8
21 26 -82z m-2652 35 c-5 -18 -15 -95 -21 -170 -14 -158 -34 -191 -25 -40 8
136 27 242 43 242 10 0 10 -8 3 -32z m501 -28 c0 -5 -5 -10 -11 -10 -5 0 -7 5
-4 10 3 6 8 10 11 10 2 0 4 -4 4 -10z m-606 -267 c7 -99 6 -103 -14 -103 -18
0 -20 6 -20 68 0 58 16 150 24 140 2 -1 6 -49 10 -105z m3013 60 c-3 -10 -5
-4 -5 12 0 17 2 24 5 18 2 -7 2 -21 0 -30z m-2720 -90 c-2 -21 -4 -4 -4 37 0
41 2 58 4 38 2 -21 2 -55 0 -75z m43 63 c0 -3 -4 -8 -10 -11 -5 -3 -10 -1 -10
4 0 6 5 11 10 11 6 0 10 -2 10 -4z m2174 -53 c8 -54 7 -131 -2 -137 -5 -3 -6
9 -4 26 3 21 1 29 -7 24 -7 -5 -11 6 -11 36 0 24 -3 53 -6 66 -5 15 -2 22 9
22 9 0 17 -14 21 -37z m-2150 -5 c15 -73 16 -145 2 -163 -13 -18 -15 -19 -21
-3 -4 9 -2 40 4 68 12 55 7 75 -15 66 -9 -4 -14 2 -14 18 0 41 36 52 44 14z
m2206 -46 c0 -36 -8 -72 -20 -97 -12 -24 -18 -30 -14 -15 3 14 8 60 11 102 6
89 23 96 23 10z m-2420 33 c9 -11 11 -40 7 -106 -3 -50 -8 -94 -12 -97 -3 -3
-28 -9 -55 -12 -47 -6 -50 -5 -50 17 0 18 6 23 24 23 23 0 23 2 14 38 -14 52
-21 119 -14 137 7 20 70 20 86 0z m2327 -42 c-3 -10 -5 -4 -5 12 0 17 2 24 5
18 2 -7 2 -21 0 -30z m-2471 -95 c-3 -29 -6 -81 -6 -115 0 -35 -4 -63 -10 -63
-6 0 -10 45 -10 115 0 100 2 115 16 115 14 0 16 -8 10 -52z m421 -10 c-3 -7
-5 -2 -5 12 0 14 2 19 5 13 2 -7 2 -19 0 -25z m-7 -40 c0 -14 -18 -9 -24 8
-11 28 -6 39 9 20 8 -11 15 -23 15 -28z m-320 -148 c0 -27 -4 -52 -10 -55 -6
-4 -10 17 -10 55 0 38 4 59 10 55 6 -3 10 -28 10 -55z m2695 -91 c5 -14 4 -19
-4 -15 -18 12 -33 86 -25 130 l8 41 7 -67 c4 -37 10 -76 14 -89z m-2635 56 c0
-43 -4 -75 -10 -75 -6 0 -10 32 -10 75 0 43 4 75 10 75 6 0 10 -32 10 -75z
m-113 -12 c-2 -16 -4 -3 -4 27 0 30 2 43 4 28 2 -16 2 -40 0 -55z m30 -95 c-3
-7 -5 -2 -5 12 0 14 2 19 5 13 2 -7 2 -19 0 -25z m2747 -20 c6 -7 -7 -827 -13
-837 -4 -5 -17 -8 -29 -4 -17 4 -22 13 -23 42 0 20 -3 30 -6 24 -7 -19 -40
-16 -47 4 -5 11 1 23 15 34 15 11 20 22 15 34 -5 15 -4 16 9 5 8 -7 22 -10 30
-6 22 8 18 37 -7 44 -21 5 -21 6 -15 200 4 107 7 258 7 334 l0 139 31 -5 c17
-2 32 -6 33 -8z m-2779 -58 c10 0 12 -32 10 -147 l-3 -148 8 115 c4 63 8 125
9 138 1 21 2 22 17 8 8 -9 22 -16 30 -16 12 0 14 -41 14 -259 l0 -259 -31 -11
c-18 -6 -34 -11 -35 -11 -2 0 -4 21 -4 48 0 26 -5 54 -10 62 -7 11 -10 -4 -10
-50 0 -52 -4 -69 -19 -82 -19 -16 -19 -13 -27 90 -7 110 1 452 13 532 6 43 7
44 15 18 6 -16 16 -28 23 -28z m2797 -445 l-9 -250 -1 241 c-1 132 1 297 6
365 l7 124 2 -115 c2 -63 -1 -227 -5 -365z m107 144 c1 -253 -8 -439 -21 -439
-10 0 -11 734 0 744 14 15 21 -80 21 -305z m-279 272 c0 -39 -9 -61 -26 -61
-10 0 -14 13 -14 45 0 38 3 45 20 45 15 0 20 -7 20 -29z m-2512 -303 c0 -180
-4 -272 -8 -238 -15 109 -10 530 6 530 2 0 3 -132 2 -292z m2857 214 c7 -25 9
-461 3 -467 -2 -2 -14 -5 -28 -7 l-25 -3 -3 268 -3 268 25 -16 c13 -9 27 -28
31 -43z m-348 -134 c-7 -142 -14 -188 -28 -188 -5 0 -9 63 -9 140 0 116 3 142
15 146 8 4 15 12 15 20 0 8 3 14 6 14 4 0 4 -60 1 -132z m72 -97 c-3 -64 -6
-106 -7 -93 -1 13 -12 27 -27 34 l-26 12 6 115 c4 101 8 118 28 139 l22 24 5
-58 c3 -31 3 -109 -1 -173z m-2526 -99 c3 -16 1 -20 -6 -13 -5 5 -11 65 -13
133 l-3 123 9 -110 c5 -60 11 -120 13 -133z m66 187 c1 -13 0 -67 -5 -119 -9
-115 -21 -85 -23 58 -1 71 2 93 12 90 6 -3 14 -15 16 -29z m2407 -513 c-5 -33
-15 -65 -27 -78 l-21 -23 16 25 c11 17 16 51 17 110 1 73 3 80 11 53 6 -18 7
-56 4 -87z m-3449 53 l35 -22 -21 -21 -21 -21 -33 33 c-27 27 -30 34 -17 42
20 13 18 13 57 -11z m3653 -59 c0 -16 -73 -181 -94 -212 -24 -36 -46 -47 -46
-23 0 25 -22 13 -48 -26 -13 -19 -26 -35 -30 -37 -4 -1 -6 32 -4 73 3 73 3 74
-22 81 -14 3 -37 3 -51 0 -22 -6 -24 -12 -28 -69 l-3 -62 -2 61 c-2 56 0 63
28 87 31 28 50 34 50 17 0 -15 70 -31 91 -19 20 10 22 18 20 55 -2 15 5 23 23
28 14 3 35 19 47 35 15 21 27 27 45 23 13 -2 24 -8 24 -12z m26 -62 c-9 -45
-86 -178 -104 -178 -7 0 -12 3 -10 8 2 4 15 30 29 57 14 28 34 71 44 98 21 56
51 67 41 15z m-193 5 c-7 -2 -19 -2 -25 0 -7 3 -2 5 12 5 14 0 19 -2 13 -5z
m-2457 -69 c-30 -21 -44 -16 -17 7 13 11 27 17 30 13 3 -3 -3 -12 -13 -20z
m246 -111 l65 -71 23 -109 c24 -114 43 -161 85 -211 29 -35 123 -263 132 -320
6 -36 2 -34 -118 89 -142 144 -178 198 -213 324 -26 91 -76 348 -76 388 0 25
-7 32 102 -90z m-296 9 c-13 -12 -17 8 -9 44 l8 39 3 -39 c2 -21 1 -41 -2 -44z
m54 43 c0 -28 -4 -35 -20 -35 -27 0 -29 56 -2 63 9 3 18 5 20 6 1 0 2 -15 2
-34z m2386 20 c4 -8 3 -36 -1 -61 -6 -42 -8 -45 -33 -42 -25 3 -27 6 -30 61
l-3 57 31 0 c18 0 33 -6 36 -15z m-2386 -104 c0 -16 3 -43 6 -60 5 -24 3 -31
-10 -31 -13 0 -16 11 -16 60 0 33 4 60 10 60 6 0 10 -13 10 -29z m2462 -27
c-11 -22 -27 -48 -36 -59 -14 -18 -15 -18 -16 -2 0 21 25 84 42 104 23 28 30
-4 10 -43z m72 40 c26 -10 19 -30 -44 -124 -48 -72 -63 -87 -80 -83 -11 3 -18
8 -16 12 2 3 24 36 49 73 25 36 47 72 49 80 3 7 8 11 11 8 3 -3 -15 -40 -40
-83 -24 -44 -43 -80 -41 -82 5 -5 98 151 98 164 0 6 -4 11 -10 11 -5 0 -7 7
-4 15 7 17 7 17 28 9z m-2396 -88 c25 -8 69 -185 53 -215 -14 -25 -14 -82 -1
-116 7 -20 7 -26 -1 -23 -29 10 -127 324 -121 387 l4 42 24 -35 c13 -19 32
-37 42 -40z m2119 -23 c20 -5 22 -10 17 -52 -5 -37 -13 -52 -42 -78 -63 -55
-68 -48 -41 57 5 19 9 48 9 64 0 23 3 27 18 21 9 -4 27 -10 39 -12z m113 -11
c0 -5 -9 -17 -21 -28 -16 -15 -22 -16 -29 -5 -13 22 0 41 26 41 13 0 24 -4 24
-8z m-2332 -36 c4 -20 -13 -36 -40 -36 -21 0 -25 45 -5 53 22 10 42 2 45 -17z
m2352 9 c0 -2 -20 -35 -44 -72 -24 -37 -47 -78 -50 -90 -4 -13 -11 -23 -15
-23 -16 0 38 133 65 161 25 26 44 37 44 24z m-2363 -61 c-3 -3 -12 -4 -19 -1
-8 3 -5 6 6 6 11 1 17 -2 13 -5z m8 -24 c-27 -12 -43 -12 -25 0 8 5 22 9 30 9
10 0 8 -3 -5 -9z m15 -20 c-8 -5 -22 -9 -30 -9 -10 0 -8 3 5 9 27 12 43 12 25
0z m2210 -9 c0 -18 -22 -71 -30 -71 -19 0 -21 42 -4 61 18 20 34 25 34 10z
m-2193 -17 c-3 -3 -12 -4 -19 -1 -8 3 -5 6 6 6 11 1 17 -2 13 -5z m2342 -13
c12 -8 10 -23 -14 -95 -25 -76 -30 -84 -47 -75 -23 12 -23 15 4 105 21 73 29
82 57 65z m-229 -40 c0 -22 5 -43 10 -46 16 -10 -28 -65 -51 -65 -10 0 -19 3
-19 6 0 18 46 144 52 144 5 0 8 -18 8 -39z m155 -32 c-9 -35 -21 -72 -26 -82
-6 -9 -12 -32 -14 -50 -3 -17 -14 -93 -25 -167 -28 -189 -26 -315 10 -559 34
-228 37 -283 16 -300 -12 -10 -15 -6 -21 21 -4 18 -27 92 -51 163 -64 193 -78
276 -70 414 15 279 19 331 26 331 12 0 100 87 100 98 0 6 -17 -8 -39 -29 -21
-22 -44 -39 -51 -39 -7 0 8 20 32 44 44 45 103 148 113 200 3 15 8 26 11 23 3
-3 -2 -33 -11 -68z m-2225 -79 c0 -9 11 -47 24 -85 19 -54 25 -64 30 -47 7 21
7 21 46 -6 22 -15 39 -34 40 -43 0 -35 -31 -192 -44 -217 -12 -23 -13 -21 -18
44 -4 51 -24 118 -73 254 -84 233 -85 236 -41 170 20 -30 36 -62 36 -70z
m2146 82 c-7 -7 -20 -10 -29 -6 -26 10 -20 19 13 19 24 0 27 -2 16 -13z m15
-54 c-17 -29 -47 -70 -68 -90 l-38 -37 -2 28 c-2 23 11 42 63 95 36 37 68 66
70 63 3 -3 -8 -29 -25 -59z m-2054 10 c-3 -8 -6 -5 -6 6 -1 11 2 17 5 13 3 -3
4 -12 1 -19z m1 -70 c14 -14 16 -48 2 -48 -10 0 -30 32 -30 49 0 14 13 14 28
-1z m1660 -13 c-3 -3 -9 2 -12 12 -6 14 -5 15 5 6 7 -7 10 -15 7 -18z m-38 5
c0 -5 -5 -10 -11 -10 -5 0 -7 5 -4 10 3 6 8 10 11 10 2 0 4 -4 4 -10z m-2029
-27 c13 -16 12 -17 -3 -4 -17 13 -22 21 -14 21 2 0 10 -8 17 -17z m2042 -14
c-21 -21 -63 -20 -63 2 0 6 9 5 22 -2 18 -10 24 -9 33 5 5 9 14 16 20 16 5 0
0 -9 -12 -21z m473 -16 c-29 -138 -34 -381 -12 -508 19 -104 62 -280 85 -348
16 -46 17 -56 4 -73 -9 -12 -12 -32 -9 -54 5 -29 1 -41 -27 -71 l-32 -37 3 97
c3 70 -5 155 -28 316 -29 200 -32 236 -27 390 5 174 23 315 39 315 5 0 7 -12
4 -27z m29 -245 l0 -263 38 -147 c25 -97 37 -164 35 -195 l-3 -48 -19 60 c-37
122 -87 363 -93 455 -3 52 0 149 6 215 26 269 36 247 36 -77z m-199 156 c3
-24 -1 -112 -9 -196 -21 -208 -7 -324 63 -518 16 -42 36 -104 44 -138 16 -58
15 -63 -4 -113 -22 -55 -22 -55 25 -81 18 -9 18 -8 -3 14 -19 21 -21 28 -11
56 6 18 15 32 21 32 5 0 7 4 4 9 -3 4 3 16 13 25 17 15 17 14 14 -41 -4 -63
-22 -133 -33 -133 -15 0 -80 81 -105 130 -59 116 -106 382 -84 477 5 26 10
131 11 233 1 181 3 296 6 314 5 23 42 -31 48 -70z m-66 15 c0 -27 -3 -30 -27
-27 -22 2 -29 9 -31 31 -3 24 0 27 27 27 28 0 31 -3 31 -31z m-4 -56 c-11 -36
-26 -127 -26 -159 0 -26 -4 -34 -17 -34 -16 0 -18 10 -15 92 4 114 5 118 37
118 21 0 25 -4 21 -17z m-1917 -150 c1 -32 -11 -43 -24 -23 -4 6 -3 34 1 63 7
48 8 50 15 22 3 -16 7 -45 8 -62z m116 77 c3 -5 1 -10 -4 -10 -6 0 -11 5 -11
10 0 6 2 10 4 10 3 0 8 -4 11 -10z m1802 -92 c-2 -18 -4 -6 -4 27 0 33 2 48 4
33 2 -15 2 -42 0 -60z m-1377 -93 c-1 -46 -17 -50 -54 -13 -30 30 -36 43 -36
79 l0 43 45 -44 c25 -24 45 -53 45 -65z m994 -61 c-15 -108 -21 -132 -41 -152
-14 -14 -34 -58 -48 -105 -13 -45 -24 -73 -24 -62 -1 26 23 115 37 142 9 16 7
26 -13 53 -30 40 -20 81 12 49 21 -21 45 -2 41 33 -5 49 -37 50 -71 1 -35 -52
-43 -74 -67 -203 -26 -136 -54 -202 -110 -255 -23 -22 -58 -71 -77 -110 -19
-38 -51 -89 -70 -112 -32 -40 -38 -43 -85 -43 -45 0 -54 4 -85 38 -19 20 -46
57 -60 82 -14 25 -63 83 -108 130 -46 47 -88 95 -94 107 -9 18 -91 361 -104
436 -4 24 5 18 74 -48 43 -41 83 -75 89 -75 18 0 32 -43 51 -156 10 -63 23
-122 28 -132 6 -11 38 -45 72 -77 l62 -57 74 4 73 3 76 76 75 76 10 74 c6 41
14 93 18 117 5 27 5 40 -1 34 -5 -5 -15 -52 -23 -104 -16 -107 -23 -128 -37
-128 -12 0 -6 193 7 222 4 9 31 31 60 47 29 16 102 75 161 129 60 55 110 98
112 97 2 -2 -5 -60 -14 -131z m-1534 87 c0 -22 -65 -157 -80 -166 -6 -4 -4 10
6 32 15 34 25 74 40 151 4 20 7 22 19 12 8 -7 15 -20 15 -29z m1920 -75 c0
-85 -6 -107 -26 -99 -10 4 -14 -4 -15 -28 -1 -32 -2 -31 -11 11 -5 25 -12 78
-15 118 l-5 72 36 0 36 0 0 -74z m-1819 27 c13 -15 12 -15 -11 -3 -34 17 -36
20 -18 20 9 0 22 -7 29 -17z m-39 -10 c19 -17 24 -43 8 -43 -5 0 -7 6 -4 14 3
8 -5 21 -18 30 -12 9 -18 16 -14 16 5 0 18 -7 28 -17z m-52 -97 c-33 -49 -50
-64 -50 -46 0 16 59 90 71 90 6 0 -4 -20 -21 -44z m520 -79 c-30 -26 -34 -27
-48 -13 -15 14 -13 18 13 46 27 28 29 29 48 13 18 -17 18 -18 -13 -46z m315
-115 c5 -45 4 -72 -2 -72 -6 0 -13 35 -17 78 -3 42 -9 88 -11 102 -4 21 -3 21
9 -5 8 -17 18 -63 21 -103z m52 102 c23 -25 27 -26 118 -22 80 3 98 7 118 26
32 30 40 28 22 -8 -27 -53 -55 -63 -151 -57 -89 5 -106 13 -130 59 -18 35 -9
36 23 2z m521 -79 c-12 -49 -23 -92 -24 -94 -19 -22 0 96 26 165 19 50 18 19
-2 -71z m-1518 42 c0 -4 -6 -2 -14 5 -8 7 -12 17 -9 22 5 8 23 -12 23 -27z
m645 -68 c26 -84 32 -120 16 -103 -8 7 -51 159 -51 178 0 22 13 -5 35 -75z
m-665 48 c0 -2 -12 -14 -26 -28 l-27 -24 18 28 c14 22 35 36 35 24z m1286 -45
c-11 -10 -15 4 -8 28 l7 25 3 -23 c2 -13 1 -26 -2 -30z m-556 -47 c0 -17 -2
-17 -10 -5 -5 8 -10 24 -10 35 0 17 2 17 10 5 5 -8 10 -24 10 -35z m-810 13
c0 -13 -23 -5 -28 10 -2 7 2 10 12 6 9 -3 16 -11 16 -16z m2080 17 c0 -2 -9
-9 -20 -15 -16 -9 -20 -8 -20 5 0 8 9 15 20 15 11 0 20 -2 20 -5z m-759 -56
c8 -16 8 -28 -1 -48 l-12 -26 23 20 c24 20 24 20 9 0 -46 -65 -74 -85 -117
-85 -38 0 -50 6 -93 46 -28 26 -50 52 -50 58 0 6 5 3 11 -6 8 -15 24 -18 84
-18 l75 0 0 40 c0 38 2 40 30 40 20 0 33 -7 41 -21z m-948 -71 c-6 -101 -26
-177 -60 -232 l-26 -41 -8 28 c-8 30 3 116 22 176 13 39 67 151 73 151 2 0 2
-37 -1 -82z m1607 37 c0 -5 -5 -3 -10 5 -5 8 -10 20 -10 25 0 6 5 3 10 -5 5
-8 10 -19 10 -25z m67 -62 c-3 -10 -5 -2 -5 17 0 19 2 27 5 18 2 -10 2 -26 0
-35z m-2128 24 c-2 -1 -15 -11 -29 -22 l-25 -20 19 23 c11 12 24 22 29 22 6 0
8 -1 6 -3z m-29 -66 c0 -6 -4 -13 -10 -16 -5 -3 -10 1 -10 9 0 9 5 16 10 16 6
0 10 -4 10 -9z m-80 -24 c0 -2 -10 -12 -22 -23 l-23 -19 19 23 c18 21 26 27
26 19z m2185 -44 c29 -83 35 -107 25 -97 -9 9 -50 119 -50 136 0 19 9 5 25
-39z m470 8 c-10 -16 -25 -3 -25 22 0 20 1 20 16 5 9 -9 13 -21 9 -27z m-2605
26 c0 -2 -10 -12 -22 -23 l-23 -19 19 23 c18 21 26 27 26 19z m2207 -43 c-3
-3 -12 -4 -19 -1 -8 3 -5 6 6 6 11 1 17 -2 13 -5z m-2307 -8 c0 -2 -8 -10 -17
-17 -16 -13 -17 -12 -4 4 13 16 21 21 21 13z m2775 -74 c65 -118 127 -186 335
-370 19 -17 30 -32 23 -32 -20 0 -184 142 -249 214 -66 75 -177 244 -168 257
9 15 21 2 59 -69z m-39 -4 c70 -118 182 -249 274 -323 33 -27 58 -50 56 -52
-11 -11 -91 37 -245 146 -93 66 -181 131 -195 143 l-26 23 46 63 c25 34 47 62
49 62 2 0 20 -28 41 -62z m47 -218 c96 -69 173 -127 171 -129 -6 -7 -134 58
-201 102 -85 55 -163 124 -163 144 0 8 4 13 9 11 5 -1 88 -59 184 -128z
m-2933 75 c-24 -25 -46 -45 -49 -45 -3 0 15 20 39 45 24 25 46 45 49 45 3 0
-15 -20 -39 -45z m2417 -47 c-2 -18 -4 -4 -4 32 0 36 2 50 4 33 2 -18 2 -48 0
-65z m-1847 -52 c0 -2 -8 -10 -17 -17 -16 -13 -17 -12 -4 4 13 16 21 21 21 13z
m1861 -73 c13 -16 12 -17 -3 -4 -17 13 -22 21 -14 21 2 0 10 -8 17 -17z m-944
-145 c-2 -18 -4 -6 -4 27 0 33 2 48 4 33 2 -15 2 -42 0 -60z"/>
<path d="M3031 5004 c0 -11 3 -14 6 -6 3 7 2 16 -1 19 -3 4 -6 -2 -5 -13z"/>
<path d="M3022 4950 c0 -14 2 -19 5 -12 2 6 2 18 0 25 -3 6 -5 1 -5 -13z"/>
<path d="M3012 4880 c0 -19 2 -27 5 -17 2 9 2 25 0 35 -3 9 -5 1 -5 -18z"/>
<path d="M3396 4817 c3 -10 9 -15 12 -12 3 3 0 11 -7 18 -10 9 -11 8 -5 -6z"/>
<path d="M3002 4800 c0 -14 2 -19 5 -12 2 6 2 18 0 25 -3 6 -5 1 -5 -13z"/>
<path d="M1742 4790 c0 -14 2 -19 5 -12 2 6 2 18 0 25 -3 6 -5 1 -5 -13z"/>
<path d="M3050 4750 c-6 -12 -9 -28 -6 -38 5 -13 153 -100 207 -120 12 -5 30
34 23 52 -5 14 -187 126 -205 126 -5 0 -13 -9 -19 -20z"/>
<path d="M3422 4760 c0 -8 4 -26 8 -40 6 -20 8 -21 8 -5 0 11 -3 29 -8 40 -5
12 -8 14 -8 5z"/>
<path d="M2992 4730 c0 -14 2 -19 5 -12 2 6 2 18 0 25 -3 6 -5 1 -5 -13z"/>
<path d="M1733 4660 c0 -47 2 -66 4 -42 2 23 2 61 0 85 -2 23 -4 4 -4 -43z"/>
<path d="M2982 4670 c0 -14 2 -19 5 -12 2 6 2 18 0 25 -3 6 -5 1 -5 -13z"/>
<path d="M3442 4665 c0 -16 2 -22 5 -12 2 9 2 23 0 30 -3 6 -5 -1 -5 -18z"/>
<path d="M2972 4610 c0 -14 2 -19 5 -12 2 6 2 18 0 25 -3 6 -5 1 -5 -13z"/>
<path d="M3453 4575 c0 -27 2 -38 4 -22 2 15 2 37 0 50 -2 12 -4 0 -4 -28z"/>
<path d="M2961 4554 c0 -11 3 -14 6 -6 3 7 2 16 -1 19 -3 4 -6 -2 -5 -13z"/>
<path d="M1723 4495 c0 -27 2 -38 4 -22 2 15 2 37 0 50 -2 12 -4 0 -4 -28z"/>
<path d="M2952 4510 c0 -14 2 -19 5 -12 2 6 2 18 0 25 -3 6 -5 1 -5 -13z"/>
<path d="M3462 4459 c-2 -34 -8 -51 -27 -69 -29 -27 -31 -51 -9 -86 16 -23 18
-24 35 -8 23 21 24 42 3 72 -12 18 -13 26 -4 37 6 7 9 33 7 57 l-4 43 -1 -46z"/>
<path d="M2935 4452 c-3 -16 -21 -44 -39 -61 l-34 -33 -48 17 c-63 21 -418 24
-461 3 -40 -19 -41 -59 -2 -159 58 -151 124 -190 294 -174 87 8 122 30 157 98
29 57 58 145 58 176 0 18 11 35 34 53 31 25 65 92 53 104 -3 3 -8 -8 -12 -24z
m-180 -273 c5 -5 -54 -9 -157 -9 -120 0 -168 3 -176 13 -8 9 24 11 156 9 92
-2 171 -7 177 -13z"/>
<path d="M1990 4279 c-10 -17 -9 -23 1 -30 18 -11 51 9 47 29 -5 25 -35 26
-48 1z"/>
<path d="M3115 4290 c-7 -12 12 -40 27 -40 16 0 21 32 7 41 -18 12 -26 11 -34
-1z"/>
<path d="M2024 3695 c0 -66 1 -92 3 -57 2 34 2 88 0 120 -2 31 -3 3 -3 -63z"/>
<path d="M1761 3756 c-15 -26 -8 -46 15 -46 8 0 15 11 16 28 1 15 5 -43 8
-128 l6 -155 2 156 c2 135 0 158 -14 163 -21 8 -19 9 -33 -18z"/>
<path d="M3398 3765 c-3 -3 -3 -17 0 -31 6 -33 37 -28 37 6 0 23 -23 39 -37
25z"/>
<path d="M2526 3734 c-14 -14 -16 -52 -14 -307 2 -236 6 -292 16 -292 11 0 14
51 12 278 l-1 277 25 0 c13 0 27 -7 30 -17 4 -9 6 -136 6 -282 -1 -191 2 -266
10 -266 8 0 11 75 10 266 0 146 2 273 6 282 8 21 40 22 48 1 3 -9 6 -127 6
-263 0 -199 3 -251 14 -267 13 -17 17 -17 37 -6 19 12 24 11 47 -11 l25 -26
56 28 c239 120 541 146 691 59 l35 -20 -20 23 c-32 37 -57 58 -100 82 -36 20
-53 22 -180 21 -159 -2 -276 -27 -420 -90 -114 -50 -108 -50 -132 -7 -20 35
-22 56 -26 286 -3 199 -7 251 -18 258 -25 16 -146 11 -163 -7z"/>
<path d="M3164 3580 c0 -85 2 -120 3 -77 2 42 2 112 0 155 -1 42 -3 7 -3 -78z"/>
<path d="M3533 3655 c0 -33 2 -45 4 -27 2 18 2 45 0 60 -2 15 -4 0 -4 -33z"/>
<path d="M3414 3585 c0 -66 1 -92 3 -57 2 34 2 88 0 120 -2 31 -3 3 -3 -63z"/>
<path d="M1663 3605 c0 -27 2 -38 4 -22 2 15 2 37 0 50 -2 12 -4 0 -4 -28z"/>
<path d="M3541 3579 c-1 -8 14 -37 32 -63 17 -26 42 -64 54 -84 13 -20 23 -32
23 -26 0 7 -20 41 -45 78 -25 36 -50 76 -55 89 -5 14 -9 16 -9 6z"/>
<path d="M1650 3543 c0 -6 -20 -37 -45 -69 -25 -31 -45 -62 -45 -67 0 -9 15 9
76 96 15 20 24 40 20 44 -3 3 -6 2 -6 -4z"/>
<path d="M3402 3448 c-30 -30 2 -93 36 -71 24 15 27 41 6 64 -20 22 -26 23
-42 7z"/>
<path d="M1776 3428 c-20 -28 -4 -61 27 -56 25 3 35 41 17 64 -17 19 -26 18
-44 -8z"/>
<path d="M2018 3410 c2 -22 6 -40 8 -40 2 0 4 18 4 40 0 22 -3 40 -8 40 -4 0
-6 -18 -4 -40z"/>
<path d="M2742 3430 c-11 -29 -3 -72 12 -67 15 5 20 67 7 80 -7 7 -13 3 -19
-13z"/>
<path d="M2430 3400 c0 -29 4 -40 15 -40 11 0 15 11 15 40 0 29 -4 40 -15 40
-11 0 -15 -11 -15 -40z"/>
<path d="M3162 3400 c0 -14 2 -19 5 -12 2 6 2 18 0 25 -3 6 -5 1 -5 -13z"/>
<path d="M1552 3370 c0 -14 2 -19 5 -12 2 6 2 18 0 25 -3 6 -5 1 -5 -13z"/>
<path d="M3662 3315 c0 -16 2 -22 5 -12 2 9 2 23 0 30 -3 6 -5 -1 -5 -18z"/>
<path d="M1779 3277 c-42 -16 -84 -45 -117 -80 l-23 -25 49 25 c67 33 165 40
270 19 113 -23 241 -61 342 -101 98 -39 98 -39 144 49 25 48 36 123 16 111 -5
-3 -10 -21 -10 -38 0 -18 -11 -48 -24 -68 l-24 -35 -89 42 c-169 83 -445 135
-534 101z"/>
<path d="M3672 3230 c0 -14 2 -19 5 -12 2 6 2 18 0 25 -3 6 -5 1 -5 -13z"/>
<path d="M1940 3180 c74 -6 205 -43 215 -61 4 -5 -11 -9 -32 -10 l-38 -1 44
-9 c25 -5 49 -13 55 -19 7 -8 1 -7 -19 0 -16 7 -68 13 -115 13 -99 2 -174 -18
-241 -63 -24 -16 -53 -30 -64 -30 -17 0 -18 -2 -5 -11 11 -8 8 -9 -15 -5 l-30
6 23 -19 c12 -11 28 -21 35 -24 6 -2 9 -8 5 -12 -4 -4 -20 0 -35 10 -28 18
-28 18 -10 -2 9 -11 17 -28 17 -39 1 -19 22 -54 33 -54 3 0 2 15 -3 33 -9 29
-8 30 5 13 11 -15 18 -17 26 -9 16 16 90 -36 83 -57 -4 -11 -2 -12 6 -4 9 9
22 9 48 2 34 -10 111 -7 239 8 78 10 119 -2 168 -47 23 -21 45 -39 49 -39 12
0 56 103 56 130 -1 54 -84 181 -109 166 -5 -4 -13 -1 -17 5 -5 8 -2 10 7 5 8
-4 5 -1 -5 8 -61 49 -303 127 -390 124 l-61 -1 75 -7z m183 -136 c43 -15 113
-61 142 -94 15 -17 5 -13 -40 14 -64 38 -135 56 -219 56 -45 0 -79 -7 -186
-36 -23 -7 -24 -6 -11 10 53 64 205 88 314 50z m-38 -64 c-3 -5 -15 -10 -26
-10 -10 0 -19 5 -19 10 0 6 12 10 26 10 14 0 23 -4 19 -10z m-195 -28 c0 -10
7 -28 16 -40 22 -32 14 -35 -24 -12 -38 23 -51 48 -31 61 22 14 39 10 39 -9z
m314 -7 c14 -13 26 -28 26 -34 0 -21 -111 -64 -179 -69 -72 -5 -160 14 -196
43 -18 15 -17 15 12 1 17 -9 42 -16 55 -16 13 -1 50 -3 83 -6 72 -6 112 14
139 70 9 20 21 36 25 36 4 0 20 -11 35 -25z m-104 -2 c0 -46 -80 -72 -114 -37
-26 26 -18 34 27 28 32 -5 46 -2 56 10 17 21 31 20 31 -1z"/>
<path d="M3118 3183 c6 -2 18 -2 25 0 6 3 1 5 -13 5 -14 0 -19 -2 -12 -5z"/>
<path d="M3078 3173 c7 -3 16 -2 19 1 4 3 -2 6 -13 5 -11 0 -14 -3 -6 -6z"/>
<path d="M3683 3130 c0 -25 2 -35 4 -22 2 12 2 32 0 45 -2 12 -4 2 -4 -23z"/>
<path d="M2970 3140 c-8 -5 -10 -10 -5 -10 6 0 17 5 25 10 8 5 11 10 5 10 -5
0 -17 -5 -25 -10z"/>
<path d="M3044 3130 c-34 -11 -75 -34 -95 -52 -20 -18 -28 -28 -20 -22 44 31
41 22 -15 -41 -34 -39 -67 -80 -73 -93 -11 -21 -11 -23 6 -14 10 6 34 27 53
47 36 38 90 72 90 57 0 -5 -24 -25 -53 -45 -29 -20 -66 -51 -82 -68 l-30 -32
25 6 c14 4 54 7 89 7 61 0 63 1 48 18 -20 21 -22 43 -6 59 8 8 22 -1 53 -33
39 -41 46 -44 93 -44 53 0 123 25 175 61 16 12 31 19 33 17 10 -10 -29 -50
-68 -71 -36 -19 -58 -22 -154 -22 -75 0 -109 -3 -102 -10 6 -5 56 -10 112 -10
92 0 109 3 160 29 31 15 62 36 67 46 8 14 18 18 43 14 26 -4 39 1 67 26 l35
31 -39 -25 c-21 -13 -45 -22 -53 -19 -11 4 -7 9 13 18 16 7 38 20 49 29 19 16
18 16 -18 10 -32 -5 -42 -3 -65 19 -51 49 -135 79 -241 86 l-96 7 60 13 c113
25 238 -9 300 -82 42 -49 47 -40 6 12 -47 59 -110 85 -216 88 -69 2 -104 -2
-151 -17z m188 -60 c62 -18 51 -25 -30 -22 -88 4 -106 8 -97 22 8 13 80 13
127 0z m-72 -55 c0 -8 -7 -15 -15 -15 -8 0 -15 7 -15 15 0 8 7 15 15 15 8 0
15 -7 15 -15z m-100 -63 c0 16 2 16 30 0 28 -16 32 -16 58 -1 15 8 33 14 40
11 36 -12 -19 -62 -68 -62 -41 0 -60 12 -85 55 l-17 30 21 -25 c16 -20 21 -22
21 -8z"/>
<path d="M1945 3115 c-5 -2 -36 -6 -67 -10 -36 -4 -65 -14 -80 -27 -20 -18
-20 -20 -3 -14 70 27 109 37 180 45 63 7 70 8 30 9 -27 0 -54 -1 -60 -3z"/>
<path d="M1476 3098 c-4 -9 -6 -129 -3 -265 4 -255 14 -330 43 -319 9 4 14 -1
14 -15 0 -35 87 -192 137 -249 77 -87 89 -109 107 -205 9 -49 24 -109 32 -132
18 -49 86 -113 121 -113 30 0 30 30 3 143 -49 200 -62 220 -224 355 -80 65
-137 125 -136 141 0 3 10 -6 21 -21 27 -36 114 -92 200 -129 95 -40 143 -73
178 -121 16 -22 32 -35 35 -30 3 5 -13 31 -36 57 -34 39 -66 59 -173 110 -91
43 -145 75 -175 105 -25 24 -49 43 -55 41 -5 -1 -7 1 -3 4 4 4 1 23 -8 43 -34
82 -57 236 -63 427 -4 108 -10 183 -15 173z"/>
<path d="M2457 3103 c-10 -9 -9 -41 2 -47 4 -3 8 8 7 24 -1 17 -1 30 -2 30 0
0 -4 -3 -7 -7z"/>
<path d="M1600 3097 c0 -2 15 -16 33 -33 l32 -29 -29 33 c-28 30 -36 37 -36
29z"/>
<path d="M3554 3057 c-24 -26 -25 -28 -3 -9 14 12 28 22 32 22 4 0 7 -24 7
-54 0 -48 -5 -60 -40 -104 -21 -28 -44 -53 -50 -57 -5 -3 -10 -21 -10 -38 0
-95 -41 -144 -147 -177 -70 -22 -193 -27 -237 -10 -15 5 -28 6 -31 0 -8 -14
77 -23 169 -18 65 3 96 11 148 35 79 37 95 59 106 141 7 52 15 69 44 100 20
20 41 47 47 59 13 25 15 129 3 137 -5 3 -22 -9 -38 -27z"/>
<path d="M1582 3055 c-7 -14 -12 -46 -12 -70 0 -37 6 -51 39 -89 33 -38 40
-54 46 -107 10 -81 27 -121 77 -175 50 -54 110 -75 217 -72 l76 1 -95 7 c-66
4 -107 13 -135 27 -43 22 -95 87 -113 142 -17 49 -14 71 5 36 25 -47 62 -87
106 -117 38 -27 45 -28 151 -26 l111 2 -115 5 c-63 3 -125 12 -136 18 -41 24
-104 106 -125 163 -11 32 -38 79 -60 105 -31 37 -39 55 -39 87 0 22 5 48 11
60 6 11 9 22 6 24 -2 2 -9 -7 -15 -21z"/>
<path d="M2824 3048 l-19 -23 23 19 c12 11 22 21 22 23 0 8 -8 2 -26 -19z"/>
<path d="M3688 2935 c-15 -270 -52 -400 -135 -476 -26 -24 -90 -62 -149 -90
l-104 -50 0 -97 c1 -53 -4 -113 -10 -132 -5 -19 -10 -71 -10 -116 0 -76 -2
-82 -30 -109 -33 -32 -38 -53 -15 -61 18 -7 52 14 112 69 58 54 62 61 83 184
13 71 27 119 47 151 15 26 26 52 25 59 -2 7 18 40 44 75 59 79 129 227 115
241 -7 7 -6 14 4 21 18 14 38 238 33 371 l-3 90 -7 -130z m-130 -512 c-14 -21
-66 -84 -116 -141 -50 -57 -98 -119 -107 -138 -9 -19 -20 -73 -25 -121 -5 -47
-11 -88 -15 -91 -11 -12 -4 106 10 158 11 39 13 78 9 136 l-7 82 104 50 c57
28 117 64 133 81 38 40 46 31 14 -16z m-218 -462 c0 -11 -11 -33 -25 -48 l-25
-28 22 47 c13 27 24 48 26 48 1 0 2 -9 2 -19z"/>
<path d="M2779 2993 c-13 -16 -12 -17 4 -4 16 13 21 21 13 21 -2 0 -10 -8 -17
-17z"/>
<path d="M2557 2886 c-16 -16 -18 -33 -37 -283 -5 -78 -12 -157 -15 -175 l-5
-33 10 30 c12 36 27 173 36 325 4 63 11 121 17 128 14 18 64 15 86 -7 13 -13
23 -51 35 -132 9 -63 19 -131 22 -152 3 -21 8 -36 10 -34 3 2 -5 69 -16 148
-23 164 -36 192 -92 197 -22 2 -41 -3 -51 -12z"/>
<path d="M2750 2867 c0 -21 35 -93 51 -103 6 -3 3 5 -6 20 -10 14 -23 43 -31
64 -7 20 -13 29 -14 19z"/>
<path d="M2591 2758 c1 -139 17 -166 18 -31 1 65 -3 114 -9 118 -6 4 -10 -27
-9 -87z"/>
<path d="M2187 2802 c-32 -8 -56 -16 -54 -18 5 -5 109 14 115 21 11 11 -6 10
-61 -3z"/>
<path d="M1851 2781 c31 -20 108 -31 171 -23 l63 7 -105 6 c-58 3 -114 9 -125
13 -16 6 -17 6 -4 -3z"/>
<path d="M3048 2773 c7 -3 16 -2 19 1 4 3 -2 6 -13 5 -11 0 -14 -3 -6 -6z"/>
<path d="M2304 2375 c-58 -76 -93 -234 -61 -276 17 -23 62 -44 139 -64 75 -20
130 -15 150 14 7 10 36 30 63 44 l50 26 -40 1 c-36 0 -45 6 -77 44 -40 48 -73
61 -112 46 -30 -11 -26 -29 12 -53 19 -12 22 -17 10 -17 -10 0 -33 14 -53 31
-31 27 -35 37 -35 78 0 25 9 64 19 87 34 74 -16 103 -65 39z"/>
<path d="M2420 2378 c0 -8 -9 -23 -20 -33 -26 -23 -26 -39 0 -25 20 11 38 56
26 67 -3 4 -6 0 -6 -9z"/>
<path d="M2491 2374 c0 -11 3 -14 6 -6 3 7 2 16 -1 19 -3 4 -6 -2 -5 -13z"/>
<path d="M2721 2364 c0 -11 3 -14 6 -6 3 7 2 16 -1 19 -3 4 -6 -2 -5 -13z"/>
<path d="M2481 2334 c0 -11 3 -14 6 -6 3 7 2 16 -1 19 -3 4 -6 -2 -5 -13z"/>
<path d="M2732 2320 c0 -14 2 -19 5 -12 2 6 2 18 0 25 -3 6 -5 1 -5 -13z"/>
<path d="M2810 2336 c0 -2 8 -10 18 -17 15 -13 16 -12 3 4 -13 16 -21 21 -21
13z"/>
<path d="M3565 2300 c-14 -16 -18 -34 -16 -85 2 -60 1 -65 -18 -65 -12 0 -21
-7 -21 -15 0 -18 16 -20 23 -2 13 31 6 -25 -8 -63 -17 -49 -17 -50 -7 -50 17
0 34 70 39 160 4 77 9 99 26 118 11 12 16 22 10 22 -5 0 -18 -9 -28 -20z"/>
<path d="M2719 2203 c-14 -9 -31 -24 -38 -34 -10 -17 -8 -19 33 -19 24 0 50
-2 58 -5 7 -2 24 5 38 16 l25 21 -28 -16 -28 -17 17 26 c15 23 15 28 3 36 -21
13 -51 10 -80 -8z"/>
<path d="M3186 1931 c-4 -5 -2 -12 3 -15 5 -4 12 -2 15 3 4 5 2 12 -3 15 -5 4
-12 2 -15 -3z"/>
<path d="M2362 1855 c-40 -19 -72 -36 -72 -39 0 -3 28 8 63 24 86 41 116 45
191 25 49 -13 68 -15 82 -6 17 10 16 11 -7 6 -14 -4 -45 1 -70 9 -67 24 -107
20 -187 -19z"/>
<path d="M2657 1883 c-3 -5 16 -7 42 -5 39 3 60 -3 125 -38 43 -22 80 -39 82
-37 3 2 -32 23 -77 45 -58 30 -93 42 -124 42 -24 0 -46 -3 -48 -7z"/>
<path d="M2370 1808 c-22 -20 -35 -23 -115 -23 -84 0 -90 -1 -93 -21 -4 -30
24 -51 49 -36 16 10 26 7 68 -23 52 -38 139 -80 148 -72 3 3 -12 17 -34 30
-44 28 -79 64 -70 73 16 17 105 24 318 25 131 1 242 -2 249 -6 6 -4 28 -7 48
-7 20 0 42 -4 49 -9 17 -15 25 5 10 25 -15 20 -161 32 -345 27 -101 -2 -115 0
-138 18 -38 30 -112 29 -144 -1z"/>
<path d="M2840 1650 c-19 -11 -31 -19 -27 -20 11 0 67 29 67 35 0 7 -1 7 -40
-15z"/>
<path d="M2748 1613 c7 -3 16 -2 19 1 4 3 -2 6 -13 5 -11 0 -14 -3 -6 -6z"/>
<path d="M2781 1467 c2 -2 20 -14 39 -26 l35 -23 -28 26 c-15 14 -33 26 -39
26 -6 0 -9 -1 -7 -3z"/>
<path d="M2400 1201 c0 -11 40 -45 82 -70 32 -19 49 -21 130 -19 l93 3 -80 18
c-44 10 -113 31 -152 47 -40 15 -73 24 -73 21z"/>
<path d="M1636 2143 c-10 -10 -7 -67 5 -83 8 -11 9 -6 6 21 -3 20 -1 41 5 47
6 6 6 12 0 16 -5 3 -12 3 -16 -1z"/>
<path d="M1767 1775 c25 -36 63 -72 63 -59 0 6 -19 28 -42 49 -36 35 -38 36
-21 10z"/>
<path d="M3530 1501 c0 -11 -6 -22 -12 -25 -7 -3 -4 -5 7 -3 21 2 36 47 16 47
-6 0 -11 -9 -11 -19z"/>
<path d="M2241 1115 c40 -46 47 -65 63 -170 8 -54 17 -100 20 -103 8 -8 8 5
-4 95 -15 109 -25 135 -68 174 -32 29 -33 30 -11 4z"/>
<path d="M3220 5116 c0 -2 7 -7 16 -10 8 -3 12 -2 9 4 -6 10 -25 14 -25 6z"/>
<path d="M3902 5028 c291 -288 495 -677 574 -1095 20 -109 33 -563 15 -563 -6
0 -24 -26 -41 -57 -17 -32 -39 -74 -50 -93 -11 -19 -20 -46 -20 -61 0 -35 50
-102 101 -136 l40 -27 -3 -142 -3 -143 -41 -43 c-52 -54 -64 -77 -64 -123 0
-32 9 -46 67 -106 52 -54 69 -66 80 -58 21 18 16 29 -42 90 -67 71 -70 94 -17
158 l37 45 -3 171 -3 170 -30 28 c-26 25 -29 34 -29 93 0 64 1 67 52 129 l53
64 -3 183 c-3 176 -13 325 -28 418 l-7 44 29 -23 c65 -51 64 -43 64 -401 l0
-326 69 -62 c54 -48 71 -69 74 -95 l4 -32 1 34 c2 31 -6 42 -68 99 l-70 65 0
308 c0 184 4 310 9 314 6 3 8 29 5 58 -9 88 -13 98 -35 95 -19 -3 -27 16 -79
164 -110 320 -300 657 -468 830 -40 42 -44 50 -39 82 5 34 4 36 -23 36 -15 0
-30 -6 -33 -12 -4 -10 -7 -10 -18 0 -7 6 -18 12 -23 12 -6 0 -4 -6 5 -13 9 -7
38 -41 65 -77 28 -36 71 -93 97 -127 110 -144 266 -421 338 -601 65 -161 81
-217 89 -317 24 -280 29 -362 31 -501 l3 -152 -52 -62 c-51 -61 -52 -63 -52
-128 l0 -67 -20 25 c-38 50 -35 73 25 179 14 25 31 52 38 60 21 27 5 510 -21
636 -79 385 -288 786 -551 1058 -48 49 -93 87 -104 87 -13 0 9 -28 75 -92z"/>
<path d="M4786 5058 c-3 -35 -3 -163 0 -285 6 -192 5 -225 -8 -246 -13 -19
-17 -66 -20 -253 l-3 -230 -27 -33 c-27 -32 -28 -36 -28 -153 0 -111 1 -120
20 -125 18 -5 20 -15 22 -102 2 -80 2 -85 5 -29 4 60 6 67 26 70 30 4 31 52 2
56 -19 3 -20 9 -17 115 3 100 6 115 28 144 24 31 24 34 24 256 l0 224 28 44
28 44 -4 283 -4 282 -32 0 -33 0 -7 -62z m-3 -1353 c1 -5 -6 -11 -15 -13 -11
-2 -18 3 -18 13 0 17 30 18 33 0z"/>
<path d="M4892 4869 c-2 -231 0 -258 15 -270 15 -12 16 -12 7 1 -5 8 -11 130
-14 270 l-6 255 -2 -256z"/>
<path d="M3260 5097 c0 -3 28 -22 63 -43 34 -21 89 -55 121 -77 32 -22 56 -35
52 -29 -11 19 -236 160 -236 149z"/>
<path d="M832 5044 c-43 -30 -20 -104 32 -104 52 0 78 52 45 93 -23 31 -45 34
-77 11z"/>
<path d="M4980 4590 l-135 -129 -3 -228 -3 -228 -30 -37 c-30 -38 -37 -58 -19
-58 6 0 10 5 10 11 0 6 13 23 29 38 38 35 45 93 39 294 -3 83 -1 167 3 186 6
28 34 61 131 153 68 64 121 118 118 121 -3 3 -66 -53 -140 -123z"/>
<path d="M4996 4552 c-114 -118 -118 -124 -111 -155 4 -17 11 -221 14 -453 4
-254 10 -427 16 -435 6 -8 8 -45 5 -84 -5 -70 -5 -70 -22 -45 -10 13 -18 41
-18 62 0 21 -5 38 -11 38 -5 0 -7 -5 -4 -11 4 -5 4 -21 1 -34 l-6 -24 -25 23
c-30 28 -32 52 -5 61 19 6 20 14 18 223 l-3 217 -2 -211 -3 -211 -25 -11 c-30
-14 -35 -65 -8 -81 15 -8 16 -12 3 -36 -13 -25 -12 -28 37 -77 44 -44 54 -50
67 -39 9 8 16 20 16 27 0 8 5 14 10 14 7 0 7 6 0 19 -14 27 -13 144 2 159 31
31 38 14 38 -88 l0 -99 68 -75 c37 -41 69 -70 71 -65 1 6 -27 41 -63 79 l-66
68 0 129 c0 70 -4 123 -8 116 -6 -9 -15 -6 -36 10 l-28 23 -5 382 c-3 210 -2
394 2 409 3 15 50 72 106 129 92 93 100 104 97 135 l-3 34 -119 -123z m-41
-1007 c17 -13 26 -24 20 -24 -5 0 -23 11 -40 24 -16 14 -25 25 -20 25 6 0 24
-11 40 -25z m-25 -228 c-1 -14 -70 58 -70 73 0 5 16 -6 35 -26 19 -19 35 -40
35 -47z"/>
<path d="M1021 4551 c-9 -6 -10 -14 -4 -25 9 -16 11 -16 23 -1 16 19 2 38 -19
26z"/>
<path d="M0 4468 c0 -28 12 -44 90 -118 l90 -85 -3 -395 c-4 -404 -11 -494
-43 -533 -54 -65 -100 -107 -119 -107 -18 -1 -19 -1 -2 -11 22 -13 26 -10 97
72 52 60 60 75 60 110 0 28 7 50 23 69 23 27 24 35 30 276 9 313 9 503 1 543
-5 23 -30 51 -103 114 -124 107 -121 105 -121 65z"/>
<path d="M5043 4434 l-73 -66 0 -206 c1 -225 -2 -212 65 -272 35 -30 34 -28
-7 15 l-48 51 0 199 0 200 72 72 c40 40 70 73 68 73 -3 0 -38 -30 -77 -66z"/>
<path d="M31 4309 c65 -62 129 -116 129 -109 0 4 -28 31 -63 60 -81 70 -111
92 -66 49z"/>
<path d="M432 4044 c-18 -7 -35 -13 -38 -13 -3 0 -9 -3 -12 -7 -4 -4 -1 -4 7
1 10 6 11 2 5 -16 -30 -89 64 -160 125 -95 62 66 -4 165 -87 130z"/>
<path d="M364 3985 c-9 -35 2 -69 31 -102 l26 -28 -27 40 c-20 31 -25 48 -21
78 6 42 0 49 -9 12z"/>
<path d="M561 3964 c0 -11 3 -14 6 -6 3 7 2 16 -1 19 -3 4 -6 -2 -5 -13z"/>
<path d="M4930 3945 c0 -4 23 -29 51 -55 l52 -48 -38 2 c-52 1 -68 -24 -36
-58 21 -22 22 -32 20 -115 -2 -50 0 -93 4 -97 4 -4 7 32 7 81 0 82 2 89 26
112 18 17 25 31 22 48 -5 22 -3 23 26 18 17 -4 37 -13 44 -22 11 -14 11 -13 2
7 -6 12 -14 22 -18 23 -42 4 -52 11 -124 78 -21 19 -38 31 -38 26z m89 -119
c9 -11 10 -20 1 -36 -13 -24 -38 -23 -53 1 -23 37 25 68 52 35z"/>
<path d="M103 3894 c-3 -8 1 -22 9 -30 12 -12 17 -12 33 -1 23 17 14 47 -15
47 -11 0 -23 -7 -27 -16z m27 -4 c0 -5 -4 -10 -10 -10 -5 0 -10 5 -10 10 0 6
5 10 10 10 6 0 10 -4 10 -10z"/>
<path d="M529 3893 c-13 -16 -12 -17 4 -4 9 7 17 15 17 17 0 8 -8 3 -21 -13z"/>
<path d="M420 3595 c0 -218 2 -255 15 -255 11 0 13 8 8 33 -6 29 -5 31 10 18
15 -12 17 -11 17 3 0 9 -7 16 -15 16 -13 0 -15 31 -15 220 0 140 -4 220 -10
220 -6 0 -10 -92 -10 -255z"/>
<path d="M88 3818 c18 -23 19 -332 1 -354 -7 -9 -12 -34 -10 -56 3 -46 -20
-88 -49 -88 -10 0 -22 -4 -25 -10 -15 -25 30 -7 61 24 32 32 39 54 35 111 -1
12 10 31 24 45 24 23 25 26 25 165 l0 142 -27 14 c-46 22 -49 23 -35 7z"/>
<path d="M250 3584 l0 -235 -57 -60 c-31 -32 -61 -59 -68 -59 -6 0 -22 -11
-35 -25 -13 -14 -31 -25 -41 -25 -9 0 -19 -6 -22 -12 -6 -16 3 -785 9 -816 4
-22 9 -23 66 -21 72 3 102 -18 112 -78 3 -21 6 -216 6 -434 l0 -397 57 -23
c45 -18 88 -53 225 -183 92 -88 168 -164 168 -168 0 -4 -8 -16 -17 -26 -17
-17 -22 -14 -123 80 -57 54 -109 98 -116 98 -6 0 -19 -9 -29 -20 -19 -21 -18
-22 93 -133 l112 -112 50 50 50 49 95 -94 c52 -52 95 -90 95 -84 0 6 -44 54
-98 105 -54 52 -171 165 -260 252 -135 131 -174 164 -227 188 l-65 29 0 416
c0 449 0 449 -55 492 -14 11 -25 24 -25 28 0 5 -25 24 -55 42 l-55 33 0 102 0
101 42 -41 c24 -22 70 -58 103 -80 104 -68 761 -613 899 -746 28 -26 54 -46
60 -44 9 3 -363 325 -569 492 -60 49 -159 130 -220 181 -60 51 -133 107 -162
126 -29 19 -75 56 -103 82 -49 45 -50 48 -50 103 0 55 1 58 49 102 l50 46 4
179 5 178 55 57 56 56 3 243 c2 133 0 242 -4 242 -5 0 -8 -106 -8 -236z m-125
-384 c-3 -5 -12 -10 -18 -10 -7 0 -6 4 3 10 19 12 23 12 15 0z"/>
<path d="M4083 3720 c0 -25 2 -35 4 -22 2 12 2 32 0 45 -2 12 -4 2 -4 -23z"/>
<path d="M27 3743 c-4 -3 -7 -15 -7 -25 0 -14 7 -18 30 -16 34 3 37 10 14 32
-17 17 -27 20 -37 9z"/>
<path d="M354 3742 c-13 -8 -14 -162 -1 -162 4 0 7 33 7 74 0 71 11 104 24 70
3 -8 11 -12 17 -8 9 5 6 11 -6 21 -21 15 -26 16 -41 5z"/>
<path d="M5058 3699 c-16 -9 -18 -30 -18 -205 0 -111 4 -203 10 -214 5 -10 25
-29 42 -41 33 -22 33 -22 -5 18 l-37 39 2 195 3 194 35 12 c30 10 31 12 10 12
-14 0 -33 -4 -42 -10z"/>
<path d="M520 3591 c-16 -31 -12 -59 12 -75 30 -21 44 -20 68 4 24 24 26 53 4
74 -22 23 -71 20 -84 -3z"/>
<path d="M4080 3510 c0 -44 2 -51 14 -41 11 9 12 20 4 49 -15 53 -18 52 -18
-8z"/>
<path d="M4757 3493 c4 -11 3 -14 -5 -9 -8 5 -12 -4 -12 -31 0 -76 16 -103
130 -218 l110 -112 -1 -54 c-1 -30 -3 -46 -6 -36 -5 17 -33 24 -33 8 0 -22 13
-39 26 -34 12 4 14 -20 14 -150 l0 -154 45 -42 c24 -22 51 -41 59 -41 8 0 16
-5 18 -10 2 -6 2 97 1 227 l-3 237 -62 63 c-34 35 -67 63 -73 63 -5 -1 23 -32
64 -70 41 -39 71 -70 67 -70 -15 0 -153 120 -238 208 l-88 89 0 77 c0 42 -4
76 -10 76 -5 0 -6 -7 -3 -17z"/>
<path d="M497 3344 c-14 -14 -7 -35 11 -32 9 2 17 10 17 17 0 16 -18 25 -28
15z"/>
<path d="M427 3274 c-87 -68 -96 -152 -22 -208 l35 -27 0 -140 c0 -130 -2
-142 -20 -157 -19 -15 -19 -19 -6 -37 14 -20 15 -20 43 1 l28 21 3 159 2 159
-45 38 c-39 33 -45 43 -45 76 0 28 7 44 28 64 39 37 73 35 122 -9 47 -43 50
-66 15 -118 -24 -35 -25 -44 -25 -170 0 -150 -2 -143 83 -211 41 -32 47 -42
47 -74 0 -34 -5 -41 -65 -85 -36 -26 -65 -49 -65 -52 0 -5 44 22 98 61 39 28
42 33 42 80 0 49 -2 51 -57 95 -32 25 -60 56 -64 70 -4 14 -7 77 -8 141 -1
109 0 117 21 131 17 12 22 26 25 74 4 69 -2 80 -74 122 l-52 31 -44 -35z"/>
<path d="M458 3199 c-28 -16 -23 -65 7 -85 54 -35 115 37 65 78 -25 20 -46 22
-72 7z m62 -29 c0 -5 -4 -10 -10 -10 -5 0 -10 5 -10 10 0 6 5 10 10 10 6 0 10
-4 10 -10z"/>
<path d="M4587 3162 c-27 -29 -38 -94 -18 -107 6 -3 8 8 4 28 -4 28 0 40 27
70 37 43 26 50 -13 9z"/>
<path d="M162 3101 c-19 -11 -11 -45 11 -49 9 -2 17 1 17 7 0 6 -3 10 -7 9 -5
-2 -8 2 -8 7 0 6 6 8 14 7 13 -3 13 -1 2 12 -8 9 -14 16 -15 16 0 0 -7 -4 -14
-9z"/>
<path d="M4618 3087 c8 -9 13 -87 15 -223 l2 -209 3 216 c2 193 0 218 -14 223
-13 5 -14 4 -6 -7z"/>
<path d="M928 3025 c-19 -100 -5 -415 17 -394 2 3 1 101 -3 219 -5 140 -10
201 -14 175z"/>
<path d="M896 2999 c-8 -42 -6 -299 2 -321 4 -10 7 66 7 167 0 102 -1 185 -1
185 -1 0 -4 -14 -8 -31z"/>
<path d="M4573 2855 c0 -33 2 -45 4 -27 2 18 2 45 0 60 -2 15 -4 0 -4 -33z"/>
<path d="M110 2736 c0 -51 50 -123 123 -177 33 -24 42 -26 58 -16 10 6 19 15
19 18 0 4 -23 21 -50 39 -28 18 -64 51 -79 74 -16 22 -38 50 -50 60 -19 17
-21 17 -21 2z"/>
<path d="M564 2675 c-11 -27 5 -64 31 -71 13 -3 29 -3 34 1 15 9 14 58 -1 73
-17 17 -57 15 -64 -3z m63 -22 c3 -8 0 -20 -7 -26 -9 -9 -11 -8 -8 8 2 13 -3
20 -12 20 -8 0 -14 -8 -14 -17 1 -10 -2 -15 -7 -12 -10 6 -12 37 -3 46 9 10
45 -4 51 -19z"/>
<path d="M225 2660 c-10 -17 20 -44 40 -36 9 3 15 14 13 23 -4 21 -43 30 -53
13z"/>
<path d="M346 2612 c-3 -5 50 -51 117 -103 138 -107 406 -326 454 -371 17 -17
37 -28 44 -26 8 3 -21 32 -66 69 -43 35 -180 148 -304 251 -124 103 -229 188
-233 188 -4 0 -9 -4 -12 -8z"/>
<path d="M967 2589 c7 -7 15 -10 18 -7 3 3 -2 9 -12 12 -14 6 -15 5 -6 -5z"/>
<path d="M4487 2564 c-14 -15 -6 -34 14 -34 14 0 19 5 17 17 -3 18 -20 27 -31
17z"/>
<path d="M0 2541 c0 -5 5 -13 10 -16 5 -3 10 -2 10 4 0 5 -4 13 -10 16 -5 3
-10 2 -10 -4z"/>
<path d="M4931 2514 c-21 -26 -21 -33 -21 -767 l0 -741 -32 -35 c-34 -35 -21
-34 20 2 l22 20 0 749 c0 738 0 748 20 766 11 9 44 20 73 23 l52 6 -57 1 c-50
2 -59 -1 -77 -24z"/>
<path d="M4713 2470 c-29 -12 -55 -53 -47 -74 15 -38 82 -39 106 -2 13 20 8
53 -10 69 -21 19 -19 19 -49 7z m42 -19 c3 -5 1 -12 -5 -16 -5 -3 -10 1 -10 9
0 18 6 21 15 7z"/>
<path d="M5050 2445 c0 -27 9 -32 28 -13 18 18 14 38 -8 38 -15 0 -20 -7 -20
-25z"/>
<path d="M5087 2412 c-10 -10 -17 -28 -17 -39 0 -14 -18 -34 -50 -58 l-50 -37
0 -471 0 -472 41 -34 41 -34 -2 474 c-3 515 -3 499 8 483 4 -6 19 -14 35 -18
26 -6 27 -5 27 30 0 36 0 36 -35 30 -43 -8 -44 1 -6 34 23 19 31 37 36 78 7
55 -1 65 -28 34z"/>
<path d="M13 2299 c13 -8 17 -22 15 -62 -1 -50 -2 -51 -5 -9 -5 51 -23 56 -23
6 0 -25 9 -47 32 -75 34 -43 32 -59 -7 -41 -20 9 -25 9 -25 -2 0 -7 7 -19 15
-26 10 -9 15 -9 15 -1 0 6 5 11 11 11 6 0 8 -7 5 -16 -4 -9 -2 -22 3 -28 6 -7
7 -31 2 -61 -8 -47 -9 -48 -10 -12 -1 30 -5 37 -21 37 -17 0 -20 -7 -20 -45 0
-29 4 -45 13 -45 9 0 11 -38 8 -167 -1 -93 0 -259 4 -369 l7 -202 201 -218
c319 -347 427 -454 458 -454 15 0 53 -14 85 -30 38 -19 50 -23 34 -10 -14 11
-45 27 -70 36 -25 9 -57 21 -72 26 -25 9 -206 197 -510 529 l-115 126 -7 259
c-10 331 -6 484 11 484 10 0 13 -55 13 -259 l0 -259 53 -38 c28 -20 97 -80
151 -133 55 -53 80 -73 56 -46 -23 28 -67 74 -97 104 -30 30 -59 65 -64 78 -5
14 -9 145 -9 293 0 229 -2 269 -15 274 -22 8 -22 116 0 116 8 0 15 7 15 15 0
8 -7 15 -16 15 -8 0 -12 5 -9 10 4 6 11 8 16 5 5 -4 9 -2 9 4 0 9 -43 47 -75
66 -14 9 -15 14 -4 38 11 25 10 30 -16 57 -16 17 -36 30 -44 30 -13 -1 -13 -2
2 -11z"/>
<path d="M1100 2183 c-34 -38 -71 -71 -82 -75 -10 -4 -16 -12 -13 -18 8 -14
35 -13 35 1 0 7 30 45 66 85 36 41 64 74 61 74 -3 0 -33 -30 -67 -67z"/>
<path d="M135 2008 c-4 -10 -4 -26 0 -35 8 -17 8 -17 12 0 3 9 3 25 0 35 -4
16 -4 16 -12 0z"/>
<path d="M4210 1721 c0 -16 17 -21 49 -15 44 9 38 24 -9 24 -22 0 -40 -4 -40
-9z"/>
<path d="M4402 1523 c4 -21 33 -25 33 -3 0 8 -8 16 -18 18 -14 3 -18 -1 -15
-15z"/>
<path d="M130 1224 c0 -6 82 -94 183 -196 100 -102 137 -137 82 -79 -56 58
-138 146 -183 196 -45 49 -82 85 -82 79z"/>
<path d="M3282 1065 c-37 -425 -44 -551 -46 -782 -1 -172 3 -266 10 -273 7 -7
7 13 1 67 -11 87 2 432 28 743 9 101 14 202 12 225 -2 22 -4 31 -5 20z"/>
<path d="M460 1027 c0 -2 15 -16 33 -33 l32 -29 -29 33 c-28 30 -36 37 -36 29z"/>
<path d="M640 955 l-24 -25 43 -44 c45 -46 63 -49 82 -14 10 18 5 27 -33 65
l-44 44 -24 -26z"/>
<path d="M537 929 c12 -12 24 -21 27 -18 2 2 -8 13 -22 23 l-27 19 22 -24z"/>
<path d="M2020 848 c0 -9 7 -51 15 -93 8 -42 17 -110 21 -151 4 -41 11 -74 16
-74 12 0 1 127 -18 201 -8 31 -14 67 -14 80 0 13 -5 31 -10 39 -8 13 -10 13
-10 -2z"/>
<path d="M2957 772 c-19 -20 -22 -48 -8 -57 12 -7 41 34 41 57 0 23 -13 23
-33 0z"/>
<path d="M2186 761 c-16 -18 -16 -20 7 -46 36 -43 65 -7 37 46 -13 24 -22 24
-44 0z"/>
<path d="M707 724 c-16 -16 -6 -35 16 -32 12 2 22 10 22 18 0 16 -26 25 -38
14z m33 -8 c0 -3 -4 -8 -10 -11 -5 -3 -10 -1 -10 4 0 6 5 11 10 11 6 0 10 -2
10 -4z"/>
<path d="M2941 654 c-11 -15 -18 -31 -14 -37 6 -10 53 39 53 56 0 15 -19 6
-39 -19z"/>
<path d="M2285 610 c-8 -24 7 -46 24 -36 15 10 14 31 -3 45 -11 10 -16 8 -21
-9z"/>
<path d="M3306 376 c-9 -142 -4 -252 15 -288 31 -61 60 -88 92 -88 18 0 41 7
51 15 25 19 50 19 66 0 13 -15 70 -21 70 -7 0 4 -20 18 -45 30 -56 27 -176
173 -206 252 -11 30 -24 91 -28 135 l-7 80 -8 -129z m139 -262 c30 -37 35 -48
24 -55 -24 -15 -36 -10 -49 21 -7 17 -22 37 -32 44 -19 14 -19 14 -1 25 10 6
19 11 19 11 1 0 19 -21 39 -46z"/>
<path d="M1205 380 c-8 -13 3 -30 20 -30 14 0 27 24 18 34 -10 9 -31 7 -38 -4z"/>
<path d="M780 281 c-66 -49 -215 -202 -196 -200 22 1 47 15 46 24 -3 17 73
100 138 151 105 82 114 102 12 25z"/>
<path d="M1851 314 c0 -11 3 -14 6 -6 3 7 2 16 -1 19 -3 4 -6 -2 -5 -13z"/>
<path d="M1830 248 c-24 -82 -68 -155 -122 -202 l-53 -46 32 0 c26 0 37 8 67
49 45 61 83 143 92 199 4 23 4 42 2 42 -3 0 -11 -19 -18 -42z"/>
<path d="M2174 221 c3 -18 6 -76 6 -127 0 -80 2 -94 16 -94 13 0 15 7 11 38
-4 20 -9 71 -13 112 -4 41 -11 82 -16 90 -6 10 -8 4 -4 -19z"/>
<path d="M3175 240 c-12 -19 -46 -153 -40 -158 3 -3 5 1 5 9 0 12 2 11 11 -1
8 -12 9 -11 4 6 -4 14 3 29 21 47 31 32 46 107 21 107 -9 0 -19 -5 -22 -10z"/>
<path d="M3033 160 c0 -36 2 -50 4 -32 2 17 2 47 0 65 -2 17 -4 3 -4 -33z"/>
<path d="M1068 203 c7 -3 16 -2 19 1 4 3 -2 6 -13 5 -11 0 -14 -3 -6 -6z"/>
<path d="M1028 193 c7 -3 16 -2 19 1 4 3 -2 6 -13 5 -11 0 -14 -3 -6 -6z"/>
<path d="M988 183 c7 -3 16 -2 19 1 4 3 -2 6 -13 5 -11 0 -14 -3 -6 -6z"/>
<path d="M938 173 c6 -2 18 -2 25 0 6 3 1 5 -13 5 -14 0 -19 -2 -12 -5z"/>
<path d="M898 163 c7 -3 16 -2 19 1 4 3 -2 6 -13 5 -11 0 -14 -3 -6 -6z"/>
<path d="M858 153 c7 -3 16 -2 19 1 4 3 -2 6 -13 5 -11 0 -14 -3 -6 -6z"/>
<path d="M818 143 c7 -3 16 -2 19 1 4 3 -2 6 -13 5 -11 0 -14 -3 -6 -6z"/>
<path d="M3023 50 c0 -25 2 -35 4 -22 2 12 2 32 0 45 -2 12 -4 2 -4 -23z"/>
<path d="M3122 55 c0 -11 3 -29 7 -40 7 -17 9 -16 16 13 4 18 4 36 1 39 -3 4
-6 -5 -7 -18 l-1 -24 -8 25 c-6 20 -8 21 -8 5z"/>
</g>
</svg>