<?xml version="1.0" standalone="no"?>
<!DOCTYPE svg PUBLIC "-//W3C//DTD SVG 20010904//EN"
 "http://www.w3.org/TR/2001/REC-SVG-20010904/DTD/svg10.dtd">
<svg version="1.0" xmlns="http://www.w3.org/2000/svg"
 width="512.000000pt" height="512.000000pt" viewBox="0 0 512.000000 512.000000"
 preserveAspectRatio="xMidYMid meet">

<g transform="translate(0.000000,512.000000) scale(0.100000,-0.100000)"
fill="#000000" stroke="none">
<path d="M1762 5089 c-65 -32 -107 -80 -130 -148 -9 -25 -12 -244 -12 -793 l0
-759 -664 -1227 c-365 -675 -675 -1250 -689 -1278 -56 -111 -75 -249 -53 -374
44 -245 235 -444 474 -495 64 -13 291 -15 1875 -15 1913 1 1850 -1 1973 47
190 74 336 261 371 475 14 86 14 104 0 187 -10 59 -28 118 -50 164 -19 40
-332 622 -696 1295 l-661 1224 0 758 c0 821 1 800 -55 874 -14 18 -49 46 -77
62 l-53 29 -745 3 -746 2 -62 -31z m527 -1873 c138 -96 124 -299 -25 -372 -69
-34 -139 -31 -207 9 -151 89 -131 317 33 386 14 6 55 10 91 8 54 -2 74 -8 108
-31z m26 -756 c273 -132 273 -506 0 -641 -42 -20 -65 -24 -145 -24 -84 0 -102
3 -152 28 -73 36 -150 119 -177 192 -70 187 33 399 222 461 65 21 192 13 252
-16z m560 -539 c77 -35 132 -131 123 -215 -21 -185 -249 -261 -373 -125 -44
49 -56 80 -57 144 -1 86 45 160 124 198 44 22 133 21 183 -2z m-1258 -265
c117 -25 228 -64 548 -191 324 -130 434 -166 574 -190 241 -42 503 14 824 177
91 47 109 52 167 53 77 0 149 -32 191 -86 32 -40 252 -430 287 -509 45 -101
14 -229 -71 -294 -77 -59 11 -56 -1576 -56 -1281 0 -1463 2 -1502 15 -140 48
-208 207 -145 340 55 117 360 653 388 682 70 72 165 90 315 59z"/>
</g>
</svg>
